<svg id="Layer_1" data-name="Layer 1" xmlns="http://www.w3.org/2000/svg" xmlns:xlink="http://www.w3.org/1999/xlink" viewBox="0 0 495 440.91"><defs><style>.cls-1{fill:#fff;}.cls-2{fill:#8f6332;}.cls-3{fill:#333;}.cls-4{fill:url(#linear-gradient);}.cls-5{fill:url(#linear-gradient-2);}.cls-6{fill:url(#linear-gradient-3);}.cls-7{fill:url(#linear-gradient-4);}.cls-8{fill:url(#linear-gradient-5);}.cls-9{fill:url(#linear-gradient-6);}.cls-10{fill:url(#linear-gradient-7);}.cls-11{fill:url(#linear-gradient-8);}.cls-12{fill:url(#linear-gradient-9);}.cls-13{fill:url(#linear-gradient-10);}.cls-14{fill:url(#linear-gradient-11);}.cls-15{fill:url(#linear-gradient-12);}.cls-16{fill:url(#linear-gradient-13);}.cls-17{fill:url(#linear-gradient-14);}.cls-18{fill:url(#linear-gradient-15);}.cls-19{fill:url(#linear-gradient-16);}.cls-20{fill:url(#linear-gradient-17);}.cls-21{fill:url(#linear-gradient-18);}.cls-22{fill:url(#linear-gradient-19);}.cls-23{fill:url(#linear-gradient-20);}.cls-24{fill:url(#linear-gradient-21);}.cls-25{fill:url(#linear-gradient-22);}.cls-26{fill:url(#linear-gradient-23);}.cls-27{fill:url(#linear-gradient-24);}.cls-28{fill:url(#linear-gradient-25);}.cls-29{fill:url(#linear-gradient-26);}.cls-30{fill:url(#linear-gradient-27);}.cls-31{fill:url(#linear-gradient-28);}.cls-32{fill:url(#linear-gradient-29);}.cls-33{fill:url(#linear-gradient-30);}.cls-34{fill:url(#linear-gradient-31);}.cls-35{fill:url(#linear-gradient-32);}.cls-36{fill:url(#linear-gradient-33);}.cls-37{fill:url(#linear-gradient-34);}.cls-38{fill:url(#linear-gradient-35);}.cls-39{fill:url(#linear-gradient-36);}.cls-40{fill:url(#linear-gradient-37);}.cls-41{fill:url(#linear-gradient-38);}.cls-42{fill:url(#linear-gradient-39);}.cls-43{fill:url(#linear-gradient-40);}.cls-44{fill:url(#linear-gradient-41);}.cls-45{fill:url(#linear-gradient-42);}.cls-46{fill:url(#linear-gradient-43);}.cls-47{fill:url(#linear-gradient-44);}.cls-48{fill:url(#linear-gradient-45);}.cls-49{fill:url(#linear-gradient-46);}.cls-50{fill:url(#linear-gradient-47);}.cls-51{fill:url(#linear-gradient-48);}.cls-52{fill:url(#linear-gradient-49);}.cls-53{fill:url(#linear-gradient-50);}</style><linearGradient id="linear-gradient" x1="184.95" y1="765.75" x2="477.35" y2="700.2" gradientTransform="translate(-82.09 -358.62) rotate(7.94)" gradientUnits="userSpaceOnUse"><stop offset="0" stop-color="#bf9d5f"/><stop offset="1" stop-color="#8f6332"/></linearGradient><linearGradient id="linear-gradient-2" x1="185.78" y1="769.48" x2="478.19" y2="703.92" xlink:href="#linear-gradient"/><linearGradient id="linear-gradient-3" x1="185.95" y1="770.24" x2="478.36" y2="704.68" xlink:href="#linear-gradient"/><linearGradient id="linear-gradient-4" x1="185.25" y1="767.11" x2="477.66" y2="701.55" xlink:href="#linear-gradient"/><linearGradient id="linear-gradient-5" x1="185.78" y1="769.45" x2="478.18" y2="703.9" xlink:href="#linear-gradient"/><linearGradient id="linear-gradient-6" x1="186.37" y1="772.11" x2="478.78" y2="706.56" xlink:href="#linear-gradient"/><linearGradient id="linear-gradient-7" x1="187.44" y1="776.86" x2="479.84" y2="711.31" xlink:href="#linear-gradient"/><linearGradient id="linear-gradient-8" x1="186.48" y1="772.59" x2="478.89" y2="707.04" xlink:href="#linear-gradient"/><linearGradient id="linear-gradient-9" x1="186.05" y1="770.69" x2="478.46" y2="705.14" xlink:href="#linear-gradient"/><linearGradient id="linear-gradient-10" x1="187.1" y1="775.35" x2="479.51" y2="709.8" xlink:href="#linear-gradient"/><linearGradient id="linear-gradient-11" x1="186.8" y1="774.04" x2="479.21" y2="708.49" xlink:href="#linear-gradient"/><linearGradient id="linear-gradient-12" x1="187.48" y1="777.07" x2="479.89" y2="711.52" xlink:href="#linear-gradient"/><linearGradient id="linear-gradient-13" x1="186.82" y1="774.12" x2="479.23" y2="708.57" xlink:href="#linear-gradient"/><linearGradient id="linear-gradient-14" x1="187.84" y1="778.66" x2="480.25" y2="713.1" xlink:href="#linear-gradient"/><linearGradient id="linear-gradient-15" x1="187.99" y1="779.35" x2="480.4" y2="713.8" xlink:href="#linear-gradient"/><linearGradient id="linear-gradient-16" x1="187.81" y1="778.52" x2="480.22" y2="712.97" xlink:href="#linear-gradient"/><linearGradient id="linear-gradient-17" x1="188.21" y1="780.33" x2="480.62" y2="714.78" xlink:href="#linear-gradient"/><linearGradient id="linear-gradient-18" x1="189.27" y1="785.05" x2="481.68" y2="719.49" xlink:href="#linear-gradient"/><linearGradient id="linear-gradient-19" x1="188.35" y1="780.96" x2="480.76" y2="715.41" xlink:href="#linear-gradient"/><linearGradient id="linear-gradient-20" x1="188.79" y1="782.89" x2="481.2" y2="717.34" xlink:href="#linear-gradient"/><linearGradient id="linear-gradient-21" x1="188.22" y1="780.37" x2="480.63" y2="714.81" xlink:href="#linear-gradient"/><linearGradient id="linear-gradient-22" x1="189.28" y1="785.09" x2="481.69" y2="719.54" xlink:href="#linear-gradient"/><linearGradient id="linear-gradient-23" x1="189.42" y1="785.71" x2="481.83" y2="720.15" xlink:href="#linear-gradient"/><linearGradient id="linear-gradient-24" x1="188.94" y1="783.56" x2="481.34" y2="718" xlink:href="#linear-gradient"/><linearGradient id="linear-gradient-25" x1="189.97" y1="788.18" x2="482.38" y2="722.63" xlink:href="#linear-gradient"/><linearGradient id="linear-gradient-26" x1="189.63" y1="786.65" x2="482.04" y2="721.1" xlink:href="#linear-gradient"/><linearGradient id="linear-gradient-27" x1="191.11" y1="793.25" x2="483.52" y2="727.7" xlink:href="#linear-gradient"/><linearGradient id="linear-gradient-28" x1="189.5" y1="786.06" x2="481.91" y2="720.5" xlink:href="#linear-gradient"/><linearGradient id="linear-gradient-29" x1="190.21" y1="789.24" x2="482.62" y2="723.69" xlink:href="#linear-gradient"/><linearGradient id="linear-gradient-30" x1="190.64" y1="791.14" x2="483.05" y2="725.59" xlink:href="#linear-gradient"/><linearGradient id="linear-gradient-31" x1="179.76" y1="742.62" x2="472.17" y2="677.06" xlink:href="#linear-gradient"/><linearGradient id="linear-gradient-32" x1="180.5" y1="745.92" x2="472.91" y2="680.36" xlink:href="#linear-gradient"/><linearGradient id="linear-gradient-33" x1="180.68" y1="746.71" x2="473.09" y2="681.16" xlink:href="#linear-gradient"/><linearGradient id="linear-gradient-34" x1="180.84" y1="747.44" x2="473.25" y2="681.89" xlink:href="#linear-gradient"/><linearGradient id="linear-gradient-35" x1="180.48" y1="745.82" x2="472.88" y2="680.27" xlink:href="#linear-gradient"/><linearGradient id="linear-gradient-36" x1="181.09" y1="748.54" x2="473.5" y2="682.99" xlink:href="#linear-gradient"/><linearGradient id="linear-gradient-37" x1="180.89" y1="747.64" x2="473.29" y2="682.09" xlink:href="#linear-gradient"/><linearGradient id="linear-gradient-38" x1="181.36" y1="749.78" x2="473.77" y2="684.23" xlink:href="#linear-gradient"/><linearGradient id="linear-gradient-39" x1="181.53" y1="750.51" x2="473.94" y2="684.95" xlink:href="#linear-gradient"/><linearGradient id="linear-gradient-40" x1="181.71" y1="751.3" x2="474.11" y2="685.75" xlink:href="#linear-gradient"/><linearGradient id="linear-gradient-41" x1="182.8" y1="756.18" x2="475.21" y2="690.63" xlink:href="#linear-gradient"/><linearGradient id="linear-gradient-42" x1="181.66" y1="751.09" x2="474.07" y2="685.54" xlink:href="#linear-gradient"/><linearGradient id="linear-gradient-43" x1="182.4" y1="754.4" x2="474.81" y2="688.84" xlink:href="#linear-gradient"/><linearGradient id="linear-gradient-44" x1="181.64" y1="751.02" x2="474.05" y2="685.46" xlink:href="#linear-gradient"/><linearGradient id="linear-gradient-45" x1="182.73" y1="755.86" x2="475.14" y2="690.31" xlink:href="#linear-gradient"/><linearGradient id="linear-gradient-46" x1="182.84" y1="756.37" x2="475.25" y2="690.82" xlink:href="#linear-gradient"/><linearGradient id="linear-gradient-47" x1="183.12" y1="757.6" x2="475.53" y2="692.05" xlink:href="#linear-gradient"/><linearGradient id="linear-gradient-48" x1="183.3" y1="758.41" x2="475.71" y2="692.86" xlink:href="#linear-gradient"/><linearGradient id="linear-gradient-49" x1="182.54" y1="755.03" x2="474.95" y2="689.48" xlink:href="#linear-gradient"/><linearGradient id="linear-gradient-50" x1="183.61" y1="759.78" x2="476.02" y2="694.23" xlink:href="#linear-gradient"/></defs><path class="cls-1" d="M0,8V364.33a8,8,0,0,0,8,8H487a8,8,0,0,0,8-8V8a8,8,0,0,0-8-8H8A8,8,0,0,0,0,8ZM481.88,357.54H13.12V64.7H481.88Z"/><path class="cls-1" d="M92.22,254.79c5.9,1.88,11.8,3.82,15.69,5.28l-9,6.25a199.07,199.07,0,0,0-20.34-7.64l4.45-3.89H65.5l5.2,3.75a94.54,94.54,0,0,1-21.86,7.92,58.82,58.82,0,0,0-7-6.67,91.39,91.39,0,0,0,16.38-5h-7.5V231.61h48.8v23.18ZM107.07,230H43v-8.39h64.07ZM58.21,211.55H46.68v-7.43H58.21v-3.74H68v3.74H82v-3.74H92.29v3.74H103.6v7.43H92.29v8.54H58.21Zm2.22,28.6h9.16v-1.94H60.43Zm0,8h9.16v-1.94H60.43ZM68,211.55v2H82v-2ZM89.3,238.21H79.59v1.94H89.3Zm0,8H79.59v1.94H89.3Z"/><path class="cls-1" d="M164.82,225.22c-.35.56-.63,1.05-1,1.6,7.78,7.64,16.8,12.29,27.42,15.9a27.29,27.29,0,0,0-6.24,8.4c-2.09-.91-4-1.88-6-2.85v18H168.7v-1.74H147.46v1.74h-9.78V249.1a68,68,0,0,1-6.46,2.85,37.36,37.36,0,0,0-6.18-8.19c12.91-4.1,24.78-11.46,31-22.28Zm-10.41-7.15A52.69,52.69,0,0,1,136.64,234a76.42,76.42,0,0,0-6.74-7.77,39.36,39.36,0,0,0,7.85-4.38H128V205.44h24.85c-.49-1.32-1-2.64-1.53-3.82L162,199.4a44.57,44.57,0,0,1,2.71,6h23.74v16.38H178.7a54.83,54.83,0,0,1,6.66,5.42l-7.42,6.45c-3.34-3.75-10.76-9.3-16.52-13l6.94-5.69c2.91,1.74,6.45,4,9.71,6.32v-6.8H137.82v7.28a29.57,29.57,0,0,0,7.14-6.94Zm14.29,37.7v-5H147.46v5ZM168.36,242a75,75,0,0,1-9.79-8.19,59.33,59.33,0,0,1-9,8.19Z"/><path class="cls-2" d="M44.93,304.71c0-9.32,6-14.78,13.14-14.78a11.52,11.52,0,0,1,8.28,3.63l-2.94,3.59a7.42,7.42,0,0,0-5.23-2.37c-4.28,0-7.48,3.67-7.48,9.74s2.9,9.85,7.37,9.85a7.81,7.81,0,0,0,5.84-2.79l3,3.51a11.41,11.41,0,0,1-9,4.16C50.74,319.25,44.93,314.14,44.93,304.71Z"/><path class="cls-2" d="M71.81,312.92c0-4.59,3.7-7,12.33-7.91-.12-2.1-1-3.7-3.67-3.7a12.16,12.16,0,0,0-5.88,2l-2-3.7a17,17,0,0,1,8.93-2.83c5.43,0,8.21,3.25,8.21,9.43v12.49H85.13l-.38-2.29H84.6a10.07,10.07,0,0,1-6.46,2.82A6.07,6.07,0,0,1,71.81,312.92Zm12.33-.16v-4.31c-5.23.65-7,2.1-7,4,0,1.68,1.19,2.4,2.83,2.4S82.76,314.1,84.14,312.76Z"/><path class="cls-2" d="M97.34,297.34h4.59l.42,3.78h.11c1.57-2.79,3.86-4.32,6.07-4.32a6.18,6.18,0,0,1,2.52.46l-1,4.85a7.18,7.18,0,0,0-2.26-.34c-1.68,0-3.7,1.11-4.88,4.2v12.75H97.34Z"/><path class="cls-2" d="M114.1,308c0-7.1,4.93-11.23,10.27-11.23s10.27,4.13,10.27,11.23-4.92,11.22-10.27,11.22S114.1,315.13,114.1,308Zm14.82,0c0-4-1.65-6.64-4.55-6.64s-4.54,2.63-4.54,6.64,1.64,6.64,4.54,6.64S128.92,312.08,128.92,308Z"/><path class="cls-2" d="M141.24,312.72V288.25h5.62V313c0,1.3.57,1.72,1.1,1.72a3.48,3.48,0,0,0,.77-.07l.68,4.16a7.59,7.59,0,0,1-2.9.49C142.62,319.25,141.24,316.7,141.24,312.72Z"/><path class="cls-2" d="M154.72,290.81A3.27,3.27,0,1,1,158,293.9,3,3,0,0,1,154.72,290.81Zm.46,6.53h5.61v21.38h-5.61Z"/><path class="cls-2" d="M168.69,297.34h4.58l.42,2.82h.12c1.87-1.83,4-3.36,6.94-3.36,4.62,0,6.61,3.21,6.61,8.59v13.33h-5.61V306.08c0-3.32-.92-4.46-3-4.46-1.76,0-2.86.84-4.43,2.4v14.7h-5.61Z"/><path class="cls-3" d="M19.28,26.87H24c2.93,0,5.36,1.06,5.36,4.38s-2.45,4.59-5.29,4.59H22.5v4.45H19.28Zm4.63,6.43c1.56,0,2.32-.74,2.32-2s-.87-1.82-2.41-1.82H22.5V33.3Z"/><path class="cls-3" d="M31.64,26.87h4.92c2.86,0,5.24,1,5.24,4.23A4,4,0,0,1,39.49,35l3,5.32h-3.6l-2.46-4.72H34.87v4.72H31.64ZM36.31,33c1.53,0,2.36-.67,2.36-1.93s-.83-1.67-2.36-1.67H34.87V33Z"/><path class="cls-3" d="M43.77,33.52c0-4.4,2.49-6.88,6.15-6.88s6.13,2.5,6.13,6.88-2.48,7-6.13,7S43.77,37.91,43.77,33.52Zm9,0c0-2.6-1.1-4.13-2.86-4.13s-2.85,1.53-2.85,4.13,1.08,4.25,2.85,4.25S52.78,36.11,52.78,33.52Z"/><path class="cls-3" d="M58.54,26.87h8.55v2.69H61.76v2.93h4.57v2.68H61.76v5.12H58.54Z"/><path class="cls-3" d="M69.41,26.87h8.5v2.69H72.63V32h4.48v2.7H72.63v2.85H78.1v2.7H69.41Z"/><path class="cls-3" d="M79.9,38.61l1.84-2.21A5.32,5.32,0,0,0,85,37.77c1.19,0,1.75-.45,1.75-1.17s-.74-1-1.89-1.52l-1.72-.72a3.92,3.92,0,0,1-2.71-3.67c0-2.25,2-4.05,4.86-4.05a6.21,6.21,0,0,1,4.35,1.76l-1.6,2a4.33,4.33,0,0,0-2.75-1c-1,0-1.59.4-1.59,1.1s.83,1.05,2,1.51l1.67.67A3.7,3.7,0,0,1,90,36.34c0,2.24-1.87,4.2-5.11,4.2A7.5,7.5,0,0,1,79.9,38.61Z"/><path class="cls-3" d="M91,38.61l1.83-2.21a5.34,5.34,0,0,0,3.24,1.37c1.19,0,1.75-.45,1.75-1.17s-.74-1-1.89-1.52l-1.71-.72a3.93,3.93,0,0,1-2.72-3.67c0-2.25,2-4.05,4.86-4.05a6.23,6.23,0,0,1,4.36,1.76l-1.6,2a4.34,4.34,0,0,0-2.76-1c-1,0-1.58.4-1.58,1.1s.83,1.05,2,1.51l1.68.67a3.7,3.7,0,0,1,2.65,3.67c0,2.24-1.88,4.2-5.12,4.2A7.46,7.46,0,0,1,91,38.61Z"/><path class="cls-3" d="M103.35,26.87h3.23V40.29h-3.23Z"/><path class="cls-3" d="M109,33.52c0-4.4,2.49-6.88,6.14-6.88s6.14,2.5,6.14,6.88-2.48,7-6.14,7S109,37.91,109,33.52Zm9,0c0-2.6-1.09-4.13-2.86-4.13s-2.84,1.53-2.84,4.13,1.08,4.25,2.84,4.25S118,36.11,118,33.52Z"/><path class="cls-3" d="M123.8,26.87h3.28l3.33,6.43,1.32,3h.09a44.44,44.44,0,0,1-.44-5V26.87h3.06V40.29h-3.27l-3.32-6.47-1.31-2.93h-.09c.14,1.49.41,3.33.41,5v4.45H123.8Z"/><path class="cls-3" d="M140,26.87h3.85L148,40.29h-3.38l-.78-3.08h-4l-.77,3.08h-3.28Zm.51,7.85h2.73L143,33.59c-.36-1.33-.7-2.94-1.06-4.3h-.07c-.32,1.4-.68,3-1,4.3Z"/><path class="cls-3" d="M149.43,26.87h3.23V37.59h5.22v2.7h-8.45Z"/><path class="cls-4" d="M1.86,432.36a.31.31,0,0,1,0-.13,1.33,1.33,0,0,1,.24-.66,2.4,2.4,0,0,1,.59-.64,1.22,1.22,0,0,1,.68-.28h.49a3.64,3.64,0,0,0,.51-.89,7.45,7.45,0,0,0,.35-1.46L6,420.63A5,5,0,0,1,6.52,419a6.2,6.2,0,0,1,1.23-1.57,4.44,4.44,0,0,1,3.18-1.46,5.33,5.33,0,0,1,.88.08,2.45,2.45,0,0,1,.72.22c.17.1.26.19.26.26s-.17.27-.5.43a2,2,0,0,1-.79.24,2.18,2.18,0,0,1-.48-.11,3,3,0,0,0-.8-.1,2.27,2.27,0,0,0-1.42.52,2.52,2.52,0,0,0-.7,1,9.46,9.46,0,0,0-.45,1.71l-1.58,9a3.84,3.84,0,0,1-.28.87,2.12,2.12,0,0,1-.45.66v0a12.28,12.28,0,0,0,1.49.16c.72.05,1.28.07,1.68.07a6.58,6.58,0,0,0,3.4-.91.58.58,0,0,1,.28-.13c.1,0,.15.08.15.23a1.38,1.38,0,0,1-.59.94,4.79,4.79,0,0,1-1.59.91,6,6,0,0,1-2.12.38,19.06,19.06,0,0,1-2-.17l-1-.1a11.44,11.44,0,0,0-1.35-.09,5,5,0,0,0-.94.08,2,2,0,0,0-.52.19.76.76,0,0,1-.29.11S1.89,432.4,1.86,432.36Z"/><path class="cls-5" d="M14.19,431.87a3.3,3.3,0,0,1-.58-2.06,8.81,8.81,0,0,1,.76-3.41,9.29,9.29,0,0,1,2-3,3.45,3.45,0,0,1,2.43-1.23c.74,0,1.12.45,1.12,1.36a4.06,4.06,0,0,1-.64,2.15,6.65,6.65,0,0,1-1.73,1.87,8.6,8.6,0,0,1-2.38,1.25,2.93,2.93,0,0,0,.38,1.68,1.29,1.29,0,0,0,1.11.51,2.28,2.28,0,0,0,1.42-.5,4,4,0,0,0,1.1-1.36.84.84,0,0,1,.13-.21.2.2,0,0,1,.17-.09c.11,0,.17.09.17.26a2.72,2.72,0,0,1-.58,1.44A5.38,5.38,0,0,1,17.56,432a3.16,3.16,0,0,1-1.83.63A1.82,1.82,0,0,1,14.19,431.87ZM17,427.21a3.38,3.38,0,0,0,1.07-1.09,2.84,2.84,0,0,0,.42-1.55c0-.68-.23-1-.71-1a1.49,1.49,0,0,0-1.11.62,5.53,5.53,0,0,0-.88,1.56,9.18,9.18,0,0,0-.48,1.79,1.1,1.1,0,0,0,.5.08A2.22,2.22,0,0,0,17,427.21Z"/><path class="cls-6" d="M21.07,430.51a9.65,9.65,0,0,1,.86-4,8.73,8.73,0,0,1,2.36-3.19,4.94,4.94,0,0,1,3.2-1.25,3.94,3.94,0,0,1,1.53.28c-.18.73-.31,1.27-.38,1.62l-.45,2.33q-.6,2.76-.72,3.81a2.06,2.06,0,0,0,0,.37c0,.31.09.47.28.47a.82.82,0,0,0,.64-.44,10.82,10.82,0,0,0,.69-1.26l.08-.13a.16.16,0,0,1,.14-.11c.08,0,.12.08.13.26l-.05.34a3.91,3.91,0,0,1-.61,1.4,4.66,4.66,0,0,1-1,1.12,1.79,1.79,0,0,1-1,.42c-.51,0-.76-.41-.76-1.23a4.73,4.73,0,0,1,.11-1l.36-1.87h0a12.67,12.67,0,0,1-2.21,2.94,3.22,3.22,0,0,1-2,1.14C21.44,432.6,21.07,431.9,21.07,430.51Zm3.5-.62a11.83,11.83,0,0,0,1.46-2.3,11.48,11.48,0,0,0,.93-2.44l.34-1.38a2.44,2.44,0,0,0-1.35-.42,2.09,2.09,0,0,0-1.69,1.07A8.09,8.09,0,0,0,23.07,427a10.11,10.11,0,0,0-.43,2.75,2.09,2.09,0,0,0,.12.81.42.42,0,0,0,.42.27C23.58,430.83,24.05,430.51,24.57,429.89Z"/><path class="cls-7" d="M30.74,430.47a9.66,9.66,0,0,1,.86-3.91,8.71,8.71,0,0,1,2.32-3.21,4.82,4.82,0,0,1,3.14-1.26h.22a32.83,32.83,0,0,1,1.32-4.48,7.24,7.24,0,0,1,1.66-2.5,4.41,4.41,0,0,1,1.24-.89,8.39,8.39,0,0,1,1.53-.43,4.08,4.08,0,0,0,.62-.17.76.76,0,0,1,.24-.07c.1,0,.16.05.16.17a.93.93,0,0,1-.41.63,1.49,1.49,0,0,1-.4.26,1.55,1.55,0,0,1-.36.08l-.25.05a2.85,2.85,0,0,0-1.9,1.12,7,7,0,0,0-1,2.16q-.43,1.39-1.18,4.89-1.24,6-1.39,7.22a3.57,3.57,0,0,0,0,.37c0,.31.1.47.28.47a.85.85,0,0,0,.66-.46,8.62,8.62,0,0,0,.65-1.24q.13-.24.24-.24c.09,0,.13.08.13.24l0,.36a4.58,4.58,0,0,1-.63,1.44,4.53,4.53,0,0,1-1,1.09,1.87,1.87,0,0,1-1,.41q-.69,0-.69-1.14a7.12,7.12,0,0,1,.08-1l.36-1.89h0a15.72,15.72,0,0,1-2,2.73,3.35,3.35,0,0,1-2.19,1.35C31.11,432.58,30.75,431.88,30.74,430.47Zm3.5-.6a11.38,11.38,0,0,0,1.46-2.3,11.56,11.56,0,0,0,.94-2.44l.34-1.38a2.47,2.47,0,0,0-1.36-.42,2.1,2.1,0,0,0-1.69,1.07A8.31,8.31,0,0,0,32.74,427a10.51,10.51,0,0,0-.43,2.75,2.26,2.26,0,0,0,.13.81.41.41,0,0,0,.42.27C33.26,430.81,33.72,430.49,34.24,429.87Z"/><path class="cls-8" d="M41.5,431.57a5.7,5.7,0,0,1,.13-1.15l1-5.75c.05-.38.08-.61.08-.69s-.06-.32-.19-.33a1,1,0,0,0-.63.42,5.64,5.64,0,0,0-.79,1.29c-.06.17-.13.26-.22.26s-.13-.07-.13-.22a3,3,0,0,1,.46-1.32,5.38,5.38,0,0,1,1.14-1.4,2,2,0,0,1,1.26-.6c.45,0,.67.32.67.95a7.66,7.66,0,0,1-.12,1.18l-1.11,6.23,0,.28c0,.16.06.24.19.24s.38-.14.62-.42a6.1,6.1,0,0,0,.8-1.29c.07-.15.14-.23.21-.23s.13.09.13.28a2.72,2.72,0,0,1-.46,1.28A5.56,5.56,0,0,1,43.39,432a1.94,1.94,0,0,1-1.2.6Q41.5,432.56,41.5,431.57Zm1.74-10.93.26-1.51a1.61,1.61,0,0,1,.46-1,1.25,1.25,0,0,1,.89-.34h.09a.2.2,0,0,1,.16.05s0,.08,0,.17l-.23,1.49a1.66,1.66,0,0,1-.45,1,1.29,1.29,0,0,1-.91.35h-.08C43.29,420.85,43.23,420.78,43.24,420.64Z"/><path class="cls-9" d="M47,432.42a1.38,1.38,0,0,1,.1-.38c.06-.2.15-.53.27-1q.42-1.8,1-6a10,10,0,0,0,.13-1.15c0-.18-.05-.28-.14-.28-.24,0-.61.44-1.09,1.3l-.19.33-.14.21a.17.17,0,0,1-.12.06q-.18,0-.18-.21a2.7,2.7,0,0,1,.48-1.23,6.7,6.7,0,0,1,1.11-1.42,1.85,1.85,0,0,1,1.17-.61.51.51,0,0,1,.49.3,1.67,1.67,0,0,1,.15.75,20.09,20.09,0,0,1-.33,2.78h0a10.85,10.85,0,0,1,2.17-2.79,3.37,3.37,0,0,1,2-1.05c.61,0,.91.42.91,1.27a10.5,10.5,0,0,1-.19,1.59l-.49,2.59c-.36,1.82-.53,2.86-.53,3.1a.5.5,0,0,0,.07.27A.28.28,0,0,0,54,431c.39,0,.83-.59,1.33-1.77,0-.16.12-.24.22-.24s.13.09.13.26a3.49,3.49,0,0,1,0,.35,3.87,3.87,0,0,1-.62,1.45,4,4,0,0,1-1.06,1.08,1.9,1.9,0,0,1-1,.4.61.61,0,0,1-.62-.37,2,2,0,0,1-.16-.83,19.61,19.61,0,0,1,.53-3.49,24.35,24.35,0,0,0,.55-3.41,1.19,1.19,0,0,0,0-.55c-.05-.11-.17-.16-.36-.16a2.07,2.07,0,0,0-1.43.89,10.65,10.65,0,0,0-2.15,4.5L48.84,431a2,2,0,0,1-.68,1.06,1.63,1.63,0,0,1-1,.49C47,432.54,47,432.5,47,432.42Z"/><path class="cls-10" d="M54.91,440.45a2.9,2.9,0,0,1-.89-1.16,3.82,3.82,0,0,1-.29-1.44,2.28,2.28,0,0,1,.24-1.13,1.6,1.6,0,0,1,.56-.59A1.09,1.09,0,0,1,55,436c.08,0,.13.06.13.18a5,5,0,0,0,.52,2.55,1.88,1.88,0,0,0,1.72.85,2.92,2.92,0,0,0,2.72-1.84,9.52,9.52,0,0,0,.63-2c.18-.84.42-2.24.73-4.19a20,20,0,0,1,.66-2.78l0,0a13.94,13.94,0,0,1-2.22,2.86,3.06,3.06,0,0,1-1.91,1c-.74,0-1.12-.7-1.12-2.11a9.68,9.68,0,0,1,.85-3.91A8.7,8.7,0,0,1,60,423.3,4.81,4.81,0,0,1,63.22,422a3.43,3.43,0,0,1,1.55.34l-.3,1c-.41,1.54-.72,2.82-.92,3.85s-.36,2-.49,3a7.94,7.94,0,0,0-.1.84c-.19,1.48-.35,2.6-.5,3.37a10.24,10.24,0,0,1-.59,2,7.18,7.18,0,0,1-1,1.71,8.58,8.58,0,0,1-2.22,2,4.36,4.36,0,0,1-2.24.74A2.33,2.33,0,0,1,54.91,440.45Zm5.58-10.73A12,12,0,0,0,62,427.21a10.51,10.51,0,0,0,.84-2.56l.13-.84a1.31,1.31,0,0,0-.55-.4,1.67,1.67,0,0,0-.63-.14,2.12,2.12,0,0,0-1.71,1.07,8.38,8.38,0,0,0-1.2,2.59,10.4,10.4,0,0,0-.42,2.75,2,2,0,0,0,.13.8.45.45,0,0,0,.43.27C59.44,430.75,59.94,430.41,60.49,429.72Z"/><path class="cls-11" d="M73.84,432.05a2.43,2.43,0,0,1-.26-1.2,8.47,8.47,0,0,1,.09-1.19c.07-.43.11-.68.12-.77l.87-5.54H72.49a.1.1,0,0,1-.11-.11c0-.15.16-.35.47-.62a1.49,1.49,0,0,1,.69-.4h1.29l.21-1.34a2.12,2.12,0,0,1,.67-1.27,1.73,1.73,0,0,1,1.16-.56.1.1,0,0,1,.11.11,2.08,2.08,0,0,1-.19.5,3.78,3.78,0,0,0-.28.9l-.26,1.66h2.12a.12.12,0,0,1,.13.13c0,.12-.17.31-.51.58a1.86,1.86,0,0,1-.66.42h-1.2l-.87,5.49c0,.1-.06.35-.12.74a6.56,6.56,0,0,0-.1.9c0,.48.16.71.48.71a1.16,1.16,0,0,0,.73-.33,3.06,3.06,0,0,0,.69-.94.41.41,0,0,1,0-.09.09.09,0,0,1,.08,0c.07,0,.11.09.11.28a2,2,0,0,1-.38,1,3.61,3.61,0,0,1-1,1,1.9,1.9,0,0,1-1.1.41A1,1,0,0,1,73.84,432.05Z"/><path class="cls-12" d="M79,432.37c0-.09.06-.27.14-.55s.15-.56.21-.85.37-2.09.87-5.11c0,.16.15-.93.53-3.28a25.57,25.57,0,0,1,1.1-4.39A8.27,8.27,0,0,1,83.82,415a4.8,4.8,0,0,1,1.37-.94,6.36,6.36,0,0,1,1.41-.38,1.63,1.63,0,0,0,.54-.13l.32-.11q.15,0,.15.18c0,.16-.13.36-.38.62a1.09,1.09,0,0,1-.37.26,1.46,1.46,0,0,1-.36.09l-.29,0a2.73,2.73,0,0,0-1,.34,3.41,3.41,0,0,0-.87.79,7,7,0,0,0-1.25,2.49,31.47,31.47,0,0,0-.74,3.54q-.09.69-.15,1l-.47,3h0A11.11,11.11,0,0,1,83.93,423,3.35,3.35,0,0,1,86,422c.6,0,.91.44.91,1.31a9.39,9.39,0,0,1-.17,1.55l-.41,2a36,36,0,0,0-.61,3.65c0,.25.1.38.3.38a.84.84,0,0,0,.67-.48,10.3,10.3,0,0,0,.64-1.29.6.6,0,0,0,.08-.13.15.15,0,0,1,.14-.1c.1,0,.15.08.15.25l0,.35A3.63,3.63,0,0,1,87,431a3.82,3.82,0,0,1-1,1.08,1.85,1.85,0,0,1-1,.4c-.52,0-.78-.4-.78-1.22a7.88,7.88,0,0,1,.14-1.42c.09-.55.22-1.23.39-2.05s.3-1.49.39-2a8.35,8.35,0,0,0,.16-1.4,1.75,1.75,0,0,0-.06-.56c-.05-.1-.17-.15-.37-.15a2.09,2.09,0,0,0-1.43.88A9.25,9.25,0,0,0,82,426.67a10.07,10.07,0,0,0-.82,2.38l-.34,1.87a1.75,1.75,0,0,1-.64,1.06,1.66,1.66,0,0,1-1,.5C79.08,432.48,79,432.44,79,432.37Z"/><path class="cls-13" d="M89.71,431.71a3.36,3.36,0,0,1-.58-2.06,8.81,8.81,0,0,1,.76-3.41,9.29,9.29,0,0,1,2-3A3.45,3.45,0,0,1,94.29,422c.74,0,1.12.45,1.12,1.36a4.06,4.06,0,0,1-.64,2.15A6.65,6.65,0,0,1,93,427.35a8.6,8.6,0,0,1-2.38,1.25,2.93,2.93,0,0,0,.38,1.68,1.29,1.29,0,0,0,1.11.51,2.28,2.28,0,0,0,1.42-.5,4,4,0,0,0,1.1-1.36,1.28,1.28,0,0,1,.13-.21.2.2,0,0,1,.17-.09c.12,0,.17.09.17.26a2.72,2.72,0,0,1-.58,1.44,5.52,5.52,0,0,1-1.48,1.49,3.16,3.16,0,0,1-1.83.63A1.82,1.82,0,0,1,89.71,431.71Zm2.83-4.66A3.38,3.38,0,0,0,93.61,426a2.94,2.94,0,0,0,.43-1.55c0-.68-.24-1-.72-1a1.49,1.49,0,0,0-1.11.62,5.53,5.53,0,0,0-.88,1.56,9.18,9.18,0,0,0-.48,1.79,1.1,1.1,0,0,0,.5.08A2.22,2.22,0,0,0,92.54,427.05Z"/><path class="cls-14" d="M103,432.06a1.27,1.27,0,0,1,.25-.65,1.22,1.22,0,0,1,.59-.52l.6-.25a.89.89,0,0,0,.42-.55,11,11,0,0,0,.25-1.37l1.42-10.22-.82,0a7.87,7.87,0,0,0-.82.13,2.71,2.71,0,0,1-.45.09c-.09,0-.13,0-.13-.13a.88.88,0,0,1,.19-.45,1.88,1.88,0,0,1,.6-.62,1.8,1.8,0,0,1,.84-.22l3-.08a4,4,0,0,0,.87-.1,1.79,1.79,0,0,1,.38-.09c.1,0,.15,0,.15.13a.88.88,0,0,1-.17.43,2.3,2.3,0,0,1-.41.56,1,1,0,0,1-.6.19l-1.06.07L106.5,429.9a1.65,1.65,0,0,1-.41.86v0l.57.12a3.12,3.12,0,0,0,.64.07,1.2,1.2,0,0,0,.59-.13,1.84,1.84,0,0,1,.29-.13c.07,0,.11.05.11.13a.81.81,0,0,1-.26.5,2.13,2.13,0,0,1-1.5.86,3.29,3.29,0,0,1-.8-.15,6.79,6.79,0,0,0-1.12-.19,2.81,2.81,0,0,0-.92.18,3.56,3.56,0,0,1-.59.17C103,432.21,103,432.16,103,432.06Z"/><path class="cls-15" d="M110.77,432.28a1.47,1.47,0,0,1,.1-.38c.06-.19.15-.52.26-1q.44-1.78,1-6a9.46,9.46,0,0,0,.12-1.14c0-.19,0-.28-.13-.28-.24,0-.61.43-1.09,1.29-.07.13-.14.24-.2.34a1,1,0,0,1-.14.2.13.13,0,0,1-.11.07c-.12,0-.18-.07-.18-.22a2.86,2.86,0,0,1,.47-1.23,6.75,6.75,0,0,1,1.12-1.41,1.83,1.83,0,0,1,1.16-.62.52.52,0,0,1,.5.3,1.72,1.72,0,0,1,.15.76,20.84,20.84,0,0,1-.34,2.78h0a10.53,10.53,0,0,1,2.17-2.8,3.4,3.4,0,0,1,2-1.05c.6,0,.91.43.91,1.27a10.59,10.59,0,0,1-.19,1.6l-.49,2.58a28.48,28.48,0,0,0-.53,3.11.5.5,0,0,0,.07.27.25.25,0,0,0,.25.11c.39,0,.83-.59,1.33-1.76,0-.16.12-.24.22-.24s.13.08.13.26a3.28,3.28,0,0,1,0,.34,3.77,3.77,0,0,1-.63,1.46,4.17,4.17,0,0,1-1,1.08,2,2,0,0,1-1.06.4.61.61,0,0,1-.61-.38,2,2,0,0,1-.16-.83,19.73,19.73,0,0,1,.53-3.49,25.75,25.75,0,0,0,.55-3.41,1.14,1.14,0,0,0,0-.54c-.05-.11-.17-.17-.36-.16a2.05,2.05,0,0,0-1.43.88,9.26,9.26,0,0,0-1.36,2.17A9.84,9.84,0,0,0,113,429l-.34,1.87a2,2,0,0,1-.68,1.06,1.65,1.65,0,0,1-1,.5C110.84,432.41,110.77,432.37,110.77,432.28Z"/><path class="cls-16" d="M120.92,430.28a9.56,9.56,0,0,1,.85-3.92,8.68,8.68,0,0,1,2.32-3.2,4.77,4.77,0,0,1,3.14-1.26h.22a32.4,32.4,0,0,1,1.32-4.48,7.24,7.24,0,0,1,1.66-2.5,4.3,4.3,0,0,1,1.25-.89,8,8,0,0,1,1.52-.43,3.76,3.76,0,0,0,.62-.17.73.73,0,0,1,.25-.07c.1,0,.15.05.15.17s-.14.39-.41.62a1.17,1.17,0,0,1-.4.26,1.21,1.21,0,0,1-.35.09l-.26,0a2.91,2.91,0,0,0-1.9,1.13,7.26,7.26,0,0,0-1,2.16q-.44,1.4-1.18,4.89-1.24,6-1.39,7.22a3.57,3.57,0,0,0,0,.37c0,.31.1.47.28.47a.85.85,0,0,0,.66-.46,7.46,7.46,0,0,0,.65-1.25c.09-.15.17-.23.24-.23s.13.08.13.23l0,.37a4.23,4.23,0,0,1-.63,1.43,4.19,4.19,0,0,1-1,1.09,1.79,1.79,0,0,1-1,.42q-.69,0-.69-1.14a8.71,8.71,0,0,1,.08-1l.36-1.9h0a15,15,0,0,1-2,2.73,3.33,3.33,0,0,1-2.19,1.36C121.29,432.39,120.92,431.68,120.92,430.28Zm3.49-.6a12.16,12.16,0,0,0,1.47-2.3,11.68,11.68,0,0,0,.93-2.44l.34-1.38a2.46,2.46,0,0,0-1.36-.43,2.15,2.15,0,0,0-1.69,1.07,8.48,8.48,0,0,0-1.19,2.59,10.06,10.06,0,0,0-.42,2.75,2.09,2.09,0,0,0,.12.81.42.42,0,0,0,.42.27C123.43,430.62,123.89,430.3,124.41,429.68Z"/><path class="cls-17" d="M131.63,431a12.11,12.11,0,0,1,.21-1.9l.72-4.44c.06-.52.09-.81.09-.88,0-.22-.06-.33-.18-.33-.33,0-.72.44-1.16,1.3,0,.06-.07.16-.14.29a.84.84,0,0,1-.16.26.18.18,0,0,1-.13.05s-.06,0-.08-.07a.35.35,0,0,1-.05-.18,2.82,2.82,0,0,1,.44-1.22,5.5,5.5,0,0,1,1.09-1.39,1.84,1.84,0,0,1,1.22-.61.64.64,0,0,1,.55.29,1.32,1.32,0,0,1,.21.79,2.81,2.81,0,0,1,0,.49l-1,6.36a3.05,3.05,0,0,0,0,.39c0,.3.11.45.34.45a2.21,2.21,0,0,0,1.54-1,10.18,10.18,0,0,0,1.46-2.3,9.75,9.75,0,0,0,.82-2.35l.3-1.57a2,2,0,0,1,.7-1.19,1.66,1.66,0,0,1,1-.41c.12,0,.17,0,.17.1a.83.83,0,0,1-.08.25,1.71,1.71,0,0,0-.13.45q-.3,1.33-1.17,6.2l-.13.69a7.26,7.26,0,0,0-.15.93c0,.2.07.3.2.3s.48-.18.76-.55a5,5,0,0,0,.67-1.2c.09-.16.16-.23.22-.23s.13.06.13.19a1.68,1.68,0,0,1,0,.41,3.81,3.81,0,0,1-.6,1.44,4.21,4.21,0,0,1-1,1.08,1.77,1.77,0,0,1-1,.41c-.56,0-.82-.44-.8-1.33a12.88,12.88,0,0,1,.26-1.57l.19-1.06h0a14.54,14.54,0,0,1-2.28,2.88,3.19,3.19,0,0,1-1.94,1.09Q131.63,432.36,131.63,431Z"/><path class="cls-18" d="M141.41,432a1.69,1.69,0,0,1-.63-1,.94.94,0,0,1,.14-.55,3.27,3.27,0,0,1,.49-.74c.11-.13.2-.2.27-.2s.13.06.18.17c.43,1,1,1.51,1.79,1.51a1.17,1.17,0,0,0,.91-.36,1.33,1.33,0,0,0,.34-1,4.14,4.14,0,0,0-.93-2.11l-.46-.64a7,7,0,0,1-.72-1.21,2.44,2.44,0,0,1-.21-1,2.69,2.69,0,0,1,.46-1.55,3.26,3.26,0,0,1,1.21-1.09,3.32,3.32,0,0,1,1.58-.41c1,0,1.55.35,1.55,1.06a1.3,1.3,0,0,1-.28.77c-.1.18-.18.26-.26.26s-.16-.08-.23-.26a1.5,1.5,0,0,0-.58-.59,1.76,1.76,0,0,0-.85-.18,1.41,1.41,0,0,0-1,.33,1,1,0,0,0-.36.82,1.45,1.45,0,0,0,.18.63,11.36,11.36,0,0,0,.71,1.09l.45.62a6.75,6.75,0,0,1,.84,1.37,3,3,0,0,1,.24,1.19,2.9,2.9,0,0,1-.51,1.59,4,4,0,0,1-1.38,1.28,3.6,3.6,0,0,1-1.83.5A1.85,1.85,0,0,1,141.41,432Z"/><path class="cls-19" d="M150,431.88a2.36,2.36,0,0,1-.26-1.19,8.72,8.72,0,0,1,.09-1.2c.07-.42.1-.68.12-.76l.87-5.54h-2.18c-.07,0-.1,0-.1-.1s.15-.35.47-.62a1.32,1.32,0,0,1,.69-.4H151l.21-1.34a2.09,2.09,0,0,1,.67-1.27,1.71,1.71,0,0,1,1.16-.56c.07,0,.11,0,.11.1a2.45,2.45,0,0,1-.19.51,3.37,3.37,0,0,0-.28.9l-.26,1.66h2.11c.09,0,.13,0,.13.13s-.16.31-.5.58a1.63,1.63,0,0,1-.66.41h-1.2l-.88,5.49c0,.1-.05.35-.11.74a5.18,5.18,0,0,0-.1.9c0,.47.16.71.48.71a1.13,1.13,0,0,0,.73-.34,2.89,2.89,0,0,0,.69-.93.41.41,0,0,1,.05-.09.09.09,0,0,1,.08,0c.07,0,.1.09.1.28a2,2,0,0,1-.37,1,3.58,3.58,0,0,1-1,1,1.86,1.86,0,0,1-1.11.41A.94.94,0,0,1,150,431.88Z"/><path class="cls-20" d="M155.69,432.28s-.06,0-.06-.07a.67.67,0,0,1,.13-.28,1.69,1.69,0,0,0,.19-.61c.06-.3.11-.58.15-.83s.09-.48.13-.7c.35-2,.59-3.34.71-4.13a9.48,9.48,0,0,0,.16-1.71,1.44,1.44,0,0,0,0-.41.2.2,0,0,0-.2-.13c-.13,0-.29.11-.49.33a4.44,4.44,0,0,0-.56.75c-.07.13-.14.24-.19.34l-.14.2a.15.15,0,0,1-.12.07.14.14,0,0,1-.13-.07.29.29,0,0,1,0-.17,2.45,2.45,0,0,1,.47-1.14,6,6,0,0,1,1.09-1.31,1.81,1.81,0,0,1,1.13-.57.57.57,0,0,1,.57.32,2.33,2.33,0,0,1,.17,1,11.35,11.35,0,0,1-.41,2.57h.05c1.36-2.6,2.62-3.91,3.78-3.91a.92.92,0,0,1,.7.25.91.91,0,0,1,.25.7,2.71,2.71,0,0,1-.2,1,2.85,2.85,0,0,1-.5.82.77.77,0,0,1-.52.32c-.1,0-.14-.06-.11-.19a2.58,2.58,0,0,0,.06-.48c0-.34-.19-.51-.56-.51a1.84,1.84,0,0,0-1.33.77,7.66,7.66,0,0,0-1.17,1.9,10,10,0,0,0-.7,2.05,10.65,10.65,0,0,0-.32,2.07,1.65,1.65,0,0,1-.37.83,3.18,3.18,0,0,1-.77.7,1.35,1.35,0,0,1-.66.28A.26.26,0,0,1,155.69,432.28Z"/><path class="cls-21" d="M162.82,440.22a2.79,2.79,0,0,1-.86-1.17,4,4,0,0,1-.28-1.47,2.08,2.08,0,0,1,.25-1.13,1.46,1.46,0,0,1,.56-.57,1.44,1.44,0,0,1,.45-.16c.07,0,.11.08.11.22q0,3.36,2.16,3.36a2.66,2.66,0,0,0,2.39-1.84,10.06,10.06,0,0,0,.6-1.79c.19-.72.43-1.84.75-3.36.13-.62.2-1,.21-1.06l.64-3h0a10.82,10.82,0,0,1-1.22,2,9.08,9.08,0,0,1-1.4,1.47,2,2,0,0,1-1.12.55q-.48,0-.66-.72a6.86,6.86,0,0,1-.17-1.75l.17-5.39c0-.12,0-.27,0-.47a1.34,1.34,0,0,0-.08-.52.28.28,0,0,0-.29-.17.94.94,0,0,0-.63.36,3.52,3.52,0,0,0-.6.95c-.08.25-.18.37-.28.37s-.17-.09-.17-.26a2.57,2.57,0,0,1,.39-1.23,3.9,3.9,0,0,1,1-1.16,1.84,1.84,0,0,1,1.13-.48.8.8,0,0,1,.82.6,4.84,4.84,0,0,1,.22,1.64l0,.69-.18,3.55,0,.72a3.34,3.34,0,0,0,.1,1,.36.36,0,0,0,.35.3c.32,0,.69-.31,1.12-.91a12,12,0,0,0,1.22-2.22,14.26,14.26,0,0,0,.86-2.46l.32-1.31a2,2,0,0,1,.74-1.2,1.74,1.74,0,0,1,1-.4c.12,0,.18,0,.18.1a.94.94,0,0,1-.08.31c-.05.13-.09.22-.12.28-.11.3-.21.63-.3,1s-.17.77-.25,1.26l-1.13,6.12-.21,1.23c-.18,1-.33,1.8-.47,2.38a11.45,11.45,0,0,1-.6,1.73,9.1,9.1,0,0,1-1.1,1.75,8.34,8.34,0,0,1-2,2,3.61,3.61,0,0,1-2,.72A2.23,2.23,0,0,1,162.82,440.22Z"/><path class="cls-22" d="M181.4,431.82a2.4,2.4,0,0,1-.26-1.2,8.47,8.47,0,0,1,.09-1.19c.07-.43.11-.68.12-.77l.87-5.54h-2.17a.1.1,0,0,1-.11-.11c0-.14.15-.35.47-.62a1.59,1.59,0,0,1,.69-.4h1.29l.21-1.33a2.12,2.12,0,0,1,.67-1.28,1.71,1.71,0,0,1,1.16-.56.1.1,0,0,1,.11.11,1.93,1.93,0,0,1-.19.5,3.78,3.78,0,0,0-.28.9l-.26,1.66h2.12a.12.12,0,0,1,.13.13c0,.12-.17.31-.51.59a1.76,1.76,0,0,1-.66.41h-1.2l-.87,5.5c0,.1-.06.34-.12.73a6.72,6.72,0,0,0-.1.9c0,.48.16.71.48.71a1.16,1.16,0,0,0,.73-.33,2.94,2.94,0,0,0,.69-.94.41.41,0,0,1,.05-.09.09.09,0,0,1,.08,0c.07,0,.11.09.11.28a2,2,0,0,1-.38,1,3.76,3.76,0,0,1-1,1,1.93,1.93,0,0,1-1.1.41A1,1,0,0,1,181.4,431.82Z"/><path class="cls-23" d="M186.71,431.55a3.6,3.6,0,0,1-.47-1.95,8.57,8.57,0,0,1,.84-3.58,9.71,9.71,0,0,1,2.07-3,3.49,3.49,0,0,1,2.36-1.21,1.41,1.41,0,0,1,1.29.74,3.8,3.8,0,0,1,.46,1.95,8.9,8.9,0,0,1-.78,3.45,10.1,10.1,0,0,1-2,3.08,3.38,3.38,0,0,1-2.41,1.25A1.53,1.53,0,0,1,186.71,431.55Zm3.71-1.45a5.55,5.55,0,0,0,.93-1.92,9.12,9.12,0,0,0,.34-2.54c0-1.63-.43-2.45-1.28-2.45a1.69,1.69,0,0,0-1.39.87,6.53,6.53,0,0,0-.9,2.1,9.45,9.45,0,0,0-.31,2.32,4.07,4.07,0,0,0,.32,1.69,1,1,0,0,0,1,.65A1.63,1.63,0,0,0,190.42,430.1Z"/><path class="cls-24" d="M209.45,431.94s0-.19.09-.47a9.86,9.86,0,0,0,.17-1.4,3,3,0,0,0-.2-1,14.66,14.66,0,0,0-1.32-2.75l-.84-1.55c-.58-1.06-1.11-2.15-1.6-3.25l-.2-.45h0l-1.34,8.58a1.64,1.64,0,0,1-.34.9v0a2.63,2.63,0,0,0,.86.19,1.19,1.19,0,0,0,.54-.11,1.05,1.05,0,0,1,.3-.12c.07,0,.11,0,.11.13a.8.8,0,0,1-.28.47c-.55.59-1,.89-1.34.89a2.07,2.07,0,0,1-.62-.17l-.31-.11a1.46,1.46,0,0,0-.49-.09,1.5,1.5,0,0,0-.69.19,1.56,1.56,0,0,1-.41.18c-.07,0-.11-.06-.11-.19a1.08,1.08,0,0,1,.14-.48,1.5,1.5,0,0,1,.36-.43,7.64,7.64,0,0,0,.66-.62,1.29,1.29,0,0,0,.27-.49,6.82,6.82,0,0,0,.21-1l1.61-10.35-.69,0a6.8,6.8,0,0,0-.9-.06,2.58,2.58,0,0,0-1.06.19,1.78,1.78,0,0,0-.73.61l-.15.22c-.07.11-.14.17-.19.17s-.11-.07-.11-.2a1,1,0,0,1,.06-.36,2.25,2.25,0,0,1,.93-1.41,3,3,0,0,1,1.74-.5l.71,0c.37,0,.69.05.95.05s.53,0,.82-.05l.45,0a4.94,4.94,0,0,0-.11.9,6.12,6.12,0,0,0,.45,2.11,23.68,23.68,0,0,0,1.37,2.93l1.22,2.28a22,22,0,0,1,1.12,2.26h0l1.17-7.91a13.75,13.75,0,0,1,.93-3.45,5.6,5.6,0,0,1,1.56-2.11,4.63,4.63,0,0,1,1.45-.86,8.85,8.85,0,0,1,2-.38,4.86,4.86,0,0,0,.62-.11,1.07,1.07,0,0,1,.26-.08c.07,0,.11,0,.11.13a.93.93,0,0,1-.3.58,1.7,1.7,0,0,1-1,.41l-.66.08a2.59,2.59,0,0,0-1,.27,2.81,2.81,0,0,0-.83.62,5.57,5.57,0,0,0-1.09,1.9,15,15,0,0,0-.67,2.7l-1.65,10.32a3.36,3.36,0,0,1-.4,1.08,6.07,6.07,0,0,1-.73,1.05c-.27.29-.48.44-.66.44A.23.23,0,0,1,209.45,431.94Z"/><path class="cls-25" d="M215,431.45a3.34,3.34,0,0,1-.58-2.06,8.89,8.89,0,0,1,.76-3.42,9.4,9.4,0,0,1,2-3,3.47,3.47,0,0,1,2.43-1.22c.74,0,1.12.45,1.12,1.35a4.1,4.1,0,0,1-.64,2.16,6.78,6.78,0,0,1-1.73,1.87,8.57,8.57,0,0,1-2.38,1.24,2.89,2.89,0,0,0,.38,1.68,1.27,1.27,0,0,0,1.11.51,2.27,2.27,0,0,0,1.42-.49,4.19,4.19,0,0,0,1.1-1.36.91.91,0,0,1,.13-.22.2.2,0,0,1,.17-.09c.11,0,.17.09.17.26a2.78,2.78,0,0,1-.58,1.45,5.66,5.66,0,0,1-1.48,1.49,3.31,3.31,0,0,1-1.83.63A1.85,1.85,0,0,1,215,431.45Zm2.83-4.66a3.42,3.42,0,0,0,1.07-1.1,2.91,2.91,0,0,0,.42-1.55c0-.67-.24-1-.71-1a1.47,1.47,0,0,0-1.11.63,5.47,5.47,0,0,0-.88,1.55,9.37,9.37,0,0,0-.48,1.79,1,1,0,0,0,.5.09A2.31,2.31,0,0,0,217.79,426.79Z"/><path class="cls-26" d="M223.61,432a.94.94,0,0,1,.12-.33,1.76,1.76,0,0,0,.16-.43c0-.5.06-1,.06-1.55s0-1.81-.14-3.57l0-.74a14.62,14.62,0,0,0-.22-1.59c-.07-.29-.22-.43-.43-.43a.44.44,0,0,0-.42.27,5.21,5.21,0,0,0-.33.94c-.06.24-.15.36-.26.36s-.17-.1-.18-.32a3.84,3.84,0,0,1,.25-1.23,3.51,3.51,0,0,1,.68-1.18,1.23,1.23,0,0,1,1-.5c.58,0,1,.52,1.19,1.57a31.86,31.86,0,0,1,.36,5.34,33.37,33.37,0,0,0,2.44-5.65,7.43,7.43,0,0,1,.67-.91q.32-.36.45-.36c.12,0,.17.18.18.54l0,1.46v.71l.33,4.61c1.56-2.59,2.34-4.25,2.34-5a.66.66,0,0,0-.09-.36,1.71,1.71,0,0,0-.22-.29c-.1-.1-.14-.17-.14-.21a1.2,1.2,0,0,1,.24-.52,5.07,5.07,0,0,1,.55-.66.85.85,0,0,1,.48-.29c.15,0,.29.12.42.38a2,2,0,0,1,.18.87,2.53,2.53,0,0,1-.21,1c-.14.34-.5,1.05-1.07,2.14l-2.3,4.47a5.76,5.76,0,0,1-.8,1.21c-.27.3-.5.45-.7.45s-.18-.05-.18-.15a1.48,1.48,0,0,1,.11-.39,1.75,1.75,0,0,0,.16-.49,6.24,6.24,0,0,0,0-.71c0-.89-.08-2.13-.22-3.71,0-.3,0-.82-.11-1.55h0c-.61,1.11-1.11,2.06-1.5,2.87a12.07,12.07,0,0,0-.88,2.58,3.71,3.71,0,0,1-.79,1.06,1.44,1.44,0,0,1-.93.5C223.67,432.17,223.61,432.11,223.61,432Z"/><path class="cls-27" d="M249.25,431.74a2.37,2.37,0,0,1-.2-1.07,7,7,0,0,1,0-.75l.77-5.24h-5.15l-.81,4.85a1.87,1.87,0,0,1-.41.91v0l.33.12a1.25,1.25,0,0,0,.43.07,1.31,1.31,0,0,0,.53-.12,1.15,1.15,0,0,1,.35-.12c.09,0,.13.05.13.15a.71.71,0,0,1-.26.46c-.54.59-1,.88-1.31.88a2.49,2.49,0,0,1-.71-.17,4.2,4.2,0,0,0-.91-.19,1.43,1.43,0,0,0-.66.18,1.54,1.54,0,0,1-.41.19c-.07,0-.11-.07-.11-.22a.81.81,0,0,1,.11-.43,2.06,2.06,0,0,1,.36-.45,6.63,6.63,0,0,0,.67-.67,1.54,1.54,0,0,0,.24-.56,13.74,13.74,0,0,0,.25-1.38l1.57-9.87-.58,0-.34-.05-.52,0a2.12,2.12,0,0,0-1.83.8l-.15.23c-.07.11-.14.16-.19.16s-.11-.06-.11-.19a1,1,0,0,1,.06-.37,2.43,2.43,0,0,1,.93-1.4,3,3,0,0,1,1.74-.5l.71,0c.4,0,.73,0,1,0a7.88,7.88,0,0,0,.82,0l.45,0a14.16,14.16,0,0,0-.42,1.73c-.07.49-.12.78-.13.88l-.58,3.69h5.2l.57-3.47a13.08,13.08,0,0,1,1.12-3.78,5.35,5.35,0,0,1,2-2.18,6.7,6.7,0,0,1,3.07-.86,6.47,6.47,0,0,0,.71-.11.78.78,0,0,1,.26-.09c.07,0,.1,0,.1.13a.88.88,0,0,1-.3.57,1.73,1.73,0,0,1-1,.42,4.86,4.86,0,0,0-2.15.73,3.72,3.72,0,0,0-1.27,1.68,14.54,14.54,0,0,0-.79,3.16l-1.51,9.87a4.17,4.17,0,0,0-.06.58.41.41,0,0,0,.07.29.32.32,0,0,0,.23.08,1,1,0,0,0,.49-.14,4.62,4.62,0,0,0,.54-.4c.19-.16.31-.24.37-.24s.13.07.13.22a1.68,1.68,0,0,1-.53,1,5.65,5.65,0,0,1-1.21,1,2.26,2.26,0,0,1-1.08.43A.59.59,0,0,1,249.25,431.74Z"/><path class="cls-28" d="M254.75,431.36a3.3,3.3,0,0,1-.57-2.06,8.81,8.81,0,0,1,.76-3.41,9.27,9.27,0,0,1,2-3,3.45,3.45,0,0,1,2.43-1.23c.75,0,1.12.45,1.13,1.36a4.15,4.15,0,0,1-.64,2.15,6.54,6.54,0,0,1-1.74,1.87,8.41,8.41,0,0,1-2.37,1.25,2.88,2.88,0,0,0,.38,1.67,1.27,1.27,0,0,0,1.11.52,2.3,2.3,0,0,0,1.42-.5,4,4,0,0,0,1.09-1.36c.05-.08.09-.16.13-.21a.21.21,0,0,1,.18-.09c.11,0,.17.09.17.26a2.72,2.72,0,0,1-.58,1.44,5.66,5.66,0,0,1-1.48,1.49,3.21,3.21,0,0,1-1.83.63A1.85,1.85,0,0,1,254.75,431.36Zm2.84-4.66a3.35,3.35,0,0,0,1.06-1.09,2.85,2.85,0,0,0,.43-1.55c0-.68-.24-1-.71-1a1.49,1.49,0,0,0-1.11.62,5.3,5.3,0,0,0-.88,1.56,8,8,0,0,0-.48,1.79,1.05,1.05,0,0,0,.49.08A2.25,2.25,0,0,0,257.59,426.7Z"/><path class="cls-29" d="M262.67,431.1a5.7,5.7,0,0,1,.13-1.15l1-5.75a6.28,6.28,0,0,0,.09-.69c0-.22-.07-.32-.2-.32s-.38.13-.62.41a5.61,5.61,0,0,0-.8,1.29c-.05.17-.13.26-.21.26s-.13-.07-.13-.21a2.84,2.84,0,0,1,.46-1.33,5.38,5.38,0,0,1,1.14-1.4,2,2,0,0,1,1.26-.6c.44,0,.66.32.67.95a7.89,7.89,0,0,1-.13,1.18L264.24,430l0,.28c0,.16.06.24.19.24s.38-.14.63-.42a6.13,6.13,0,0,0,.79-1.29c.07-.15.14-.23.22-.23s.13.09.13.28a2.84,2.84,0,0,1-.46,1.28,5.83,5.83,0,0,1-1.13,1.38,2,2,0,0,1-1.21.6Q262.67,432.09,262.67,431.1Zm1.75-10.93.25-1.51a1.67,1.67,0,0,1,.46-1,1.29,1.29,0,0,1,.9-.34h.08c.09,0,.14,0,.16.05a.22.22,0,0,1,0,.17l-.23,1.49a1.66,1.66,0,0,1-.45,1,1.27,1.27,0,0,1-.9.35h-.09C264.47,420.38,264.4,420.31,264.42,420.17Z"/><path class="cls-30" d="M265.78,440a2.87,2.87,0,0,1-.88-1.16,3.63,3.63,0,0,1-.3-1.43,2.19,2.19,0,0,1,.25-1.14,1.53,1.53,0,0,1,.56-.59,1.06,1.06,0,0,1,.48-.17c.09,0,.13.05.13.17a5.06,5.06,0,0,0,.52,2.55,1.86,1.86,0,0,0,1.73.85,2.9,2.9,0,0,0,2.71-1.84,9.16,9.16,0,0,0,.63-2c.18-.84.42-2.23.74-4.19a19,19,0,0,1,.66-2.78l0,0a13.35,13.35,0,0,1-2.23,2.86,3,3,0,0,1-1.9,1c-.75,0-1.12-.7-1.13-2.1a9.54,9.54,0,0,1,.86-3.92,8.59,8.59,0,0,1,2.33-3.2,4.79,4.79,0,0,1,3.17-1.26,3.4,3.4,0,0,1,1.55.34l-.29,1c-.42,1.53-.72,2.82-.92,3.84s-.37,2-.49,3c-.09.62-.12.9-.11.84-.18,1.48-.35,2.61-.5,3.37a9.6,9.6,0,0,1-.59,2,7.43,7.43,0,0,1-1.05,1.72,8.69,8.69,0,0,1-2.21,2,4.39,4.39,0,0,1-2.24.74A2.3,2.3,0,0,1,265.78,440Zm5.58-10.73a11.46,11.46,0,0,0,1.48-2.5,11.26,11.26,0,0,0,.85-2.57l.13-.84a1.48,1.48,0,0,0-.55-.4,1.77,1.77,0,0,0-.64-.14,2.14,2.14,0,0,0-1.71,1.07,8.15,8.15,0,0,0-1.19,2.59,10.05,10.05,0,0,0-.43,2.75,2.06,2.06,0,0,0,.13.81.46.46,0,0,0,.44.27C270.31,430.3,270.81,430,271.36,429.27Z"/><path class="cls-31" d="M276.66,432a4.76,4.76,0,0,1,.14-.55c.07-.28.14-.56.2-.85s.37-2.09.87-5.11c0,.16.15-.93.53-3.28a25.57,25.57,0,0,1,1.1-4.39,8.36,8.36,0,0,1,1.95-3.18,4.84,4.84,0,0,1,1.36-.94,5.85,5.85,0,0,1,1.41-.37,1.88,1.88,0,0,0,.54-.14,1.94,1.94,0,0,1,.32-.1c.1,0,.16,0,.16.17s-.13.36-.39.62a1,1,0,0,1-.37.26,1.06,1.06,0,0,1-.35.09l-.29,0a2.67,2.67,0,0,0-1,.34,3.46,3.46,0,0,0-.88.79,7,7,0,0,0-1.25,2.49,31.23,31.23,0,0,0-.74,3.55,9.56,9.56,0,0,1-.15,1l-.46,3h0a11,11,0,0,1,2.19-2.8,3.37,3.37,0,0,1,2-1.05c.61,0,.91.44.91,1.31a8.6,8.6,0,0,1-.17,1.56l-.4,2c-.41,2.12-.62,3.33-.62,3.65s.1.38.3.38a.83.83,0,0,0,.67-.48,9.08,9.08,0,0,0,.64-1.29s0-.05.08-.13a.15.15,0,0,1,.14-.1c.1,0,.15.08.15.25l0,.35a3.94,3.94,0,0,1-.61,1.45,4.19,4.19,0,0,1-1,1.09,2,2,0,0,1-1,.4q-.78,0-.78-1.23a8.91,8.91,0,0,1,.14-1.42c.09-.55.22-1.23.39-2s.31-1.49.4-2a11.14,11.14,0,0,0,.16-1.4,1.68,1.68,0,0,0-.07-.56c0-.1-.16-.15-.37-.15a2.09,2.09,0,0,0-1.43.88,9.11,9.11,0,0,0-1.36,2.15,9.8,9.8,0,0,0-.81,2.37l-.34,1.87a1.82,1.82,0,0,1-.65,1.06,1.64,1.64,0,0,1-1,.5C276.71,432.06,276.66,432,276.66,432Z"/><path class="cls-32" d="M287.88,431.59a2.36,2.36,0,0,1-.26-1.19,7.28,7.28,0,0,1,.1-1.2c.06-.42.1-.68.11-.76l.87-5.54h-2.17a.1.1,0,0,1-.11-.11c0-.14.16-.34.47-.61a1.4,1.4,0,0,1,.69-.4h1.29l.22-1.34a2,2,0,0,1,.66-1.27,1.7,1.7,0,0,1,1.16-.57.1.1,0,0,1,.11.11,1.94,1.94,0,0,1-.19.51,3.84,3.84,0,0,0-.28.89l-.25,1.66h2.11a.12.12,0,0,1,.13.13c0,.11-.17.31-.51.58s-.55.41-.65.41h-1.21l-.87,5.5c0,.1-.06.34-.12.73a6.36,6.36,0,0,0-.09.91c0,.47.16.71.47.71a1.13,1.13,0,0,0,.73-.34,2.83,2.83,0,0,0,.69-.94.35.35,0,0,1,0-.08s.05-.05.08-.05.11.1.11.28a2,2,0,0,1-.38,1,3.54,3.54,0,0,1-.94,1,1.93,1.93,0,0,1-1.11.41A1,1,0,0,1,287.88,431.59Z"/><path class="cls-33" d="M293.12,431.66a1.73,1.73,0,0,1-.63-1,.93.93,0,0,1,.14-.55,3.93,3.93,0,0,1,.48-.75c.12-.13.21-.19.28-.19s.13.06.18.17c.43,1,1,1.51,1.79,1.51a1.2,1.2,0,0,0,.91-.36,1.32,1.32,0,0,0,.33-1,4,4,0,0,0-.93-2.11l-.45-.65a6.73,6.73,0,0,1-.73-1.2,2.64,2.64,0,0,1-.2-1,2.75,2.75,0,0,1,.46-1.56,3.34,3.34,0,0,1,1.21-1.09,3.43,3.43,0,0,1,1.58-.4c1,0,1.55.35,1.55,1a1.31,1.31,0,0,1-.28.78c-.1.17-.19.26-.26.26s-.16-.09-.24-.26a1.41,1.41,0,0,0-.57-.59,1.76,1.76,0,0,0-.85-.18,1.45,1.45,0,0,0-1,.32,1.06,1.06,0,0,0-.36.82,1.45,1.45,0,0,0,.18.64,10.79,10.79,0,0,0,.7,1.09l.46.62a6.75,6.75,0,0,1,.84,1.37,3,3,0,0,1,.24,1.19,2.93,2.93,0,0,1-.51,1.59,4,4,0,0,1-1.38,1.28,3.6,3.6,0,0,1-1.83.5A1.83,1.83,0,0,1,293.12,431.66Z"/><path class="cls-34" d="M99.87,399.41a7.4,7.4,0,0,1-1.1-4.42,12.06,12.06,0,0,1,1.28-5.76,9.82,9.82,0,0,1,3.24-3.72,7,7,0,0,1,3.81-1.3,4.52,4.52,0,0,1,2.13.48,1.53,1.53,0,0,1,.93,1.43,2.75,2.75,0,0,1-.54,1.49,1.41,1.41,0,0,1-.23.27.32.32,0,0,1-.23.09.25.25,0,0,1-.24-.16,1.58,1.58,0,0,1-.09-.36,2.26,2.26,0,0,0,0-.3,2,2,0,0,0-.73-1.25,2.74,2.74,0,0,0-1.67-.45,4,4,0,0,0-3.16,1.44,9,9,0,0,0-1.88,3.54,14.14,14.14,0,0,0-.61,4.09,6.2,6.2,0,0,0,.84,3.5,2.73,2.73,0,0,0,2.39,1.23,3.94,3.94,0,0,0,2.36-.83,6.12,6.12,0,0,0,1.85-2.33c.09-.17.19-.26.28-.26s.12.09.12.26,0,.18,0,.28l0,.21a6.06,6.06,0,0,1-1.16,2.22,6,6,0,0,1-2,1.53,5.5,5.5,0,0,1-2.38.55A3.69,3.69,0,0,1,99.87,399.41Z"/><path class="cls-35" d="M110.85,400.11a3.85,3.85,0,0,1-.5-2.11,9.06,9.06,0,0,1,.9-3.88,10.79,10.79,0,0,1,2.24-3.29,3.84,3.84,0,0,1,2.55-1.32,1.56,1.56,0,0,1,1.41.81,4.07,4.07,0,0,1,.49,2.11,9.6,9.6,0,0,1-.84,3.73A11.24,11.24,0,0,1,115,399.5a3.69,3.69,0,0,1-2.61,1.36A1.68,1.68,0,0,1,110.85,400.11Zm4-1.58a5.71,5.71,0,0,0,1-2.07,9.88,9.88,0,0,0,.37-2.75c0-1.77-.46-2.65-1.38-2.65a1.83,1.83,0,0,0-1.51.93,7.2,7.2,0,0,0-1,2.28,10.08,10.08,0,0,0-.33,2.51,4.18,4.18,0,0,0,.34,1.83,1.14,1.14,0,0,0,1.08.71A1.77,1.77,0,0,0,114.87,398.53Z"/><path class="cls-36" d="M119.94,400.71a1.78,1.78,0,0,1,.11-.41c.06-.21.16-.58.28-1.09q.47-1.93,1.11-6.46a10.28,10.28,0,0,0,.14-1.24c0-.2,0-.3-.14-.3-.27,0-.66.46-1.19,1.4L120,393a1.33,1.33,0,0,1-.15.22.16.16,0,0,1-.13.07c-.12,0-.19-.07-.19-.23a2.91,2.91,0,0,1,.52-1.33,6.75,6.75,0,0,1,1.21-1.53,1.92,1.92,0,0,1,1.25-.67.56.56,0,0,1,.54.33,1.77,1.77,0,0,1,.17.81,24.06,24.06,0,0,1-.37,3h0a11.56,11.56,0,0,1,2.35-3,3.65,3.65,0,0,1,2.22-1.14c.65,0,1,.46,1,1.37a11.63,11.63,0,0,1-.21,1.73l-.53,2.8q-.57,3-.57,3.36a.52.52,0,0,0,.08.3.29.29,0,0,0,.27.12c.42,0,.9-.64,1.44-1.91.05-.17.12-.26.23-.26s.14.09.14.28a2.12,2.12,0,0,1,0,.37,4.15,4.15,0,0,1-.67,1.58,4.55,4.55,0,0,1-1.14,1.17,2.06,2.06,0,0,1-1.15.43.66.66,0,0,1-.66-.4,2.26,2.26,0,0,1-.18-.9,21.47,21.47,0,0,1,.58-3.78,27.79,27.79,0,0,0,.6-3.69,1.56,1.56,0,0,0-.06-.6.41.41,0,0,0-.39-.17,2.23,2.23,0,0,0-1.55,1,10.4,10.4,0,0,0-1.48,2.35,10.17,10.17,0,0,0-.85,2.53l-.37,2a2.17,2.17,0,0,1-.75,1.15,1.83,1.83,0,0,1-1.07.54C120,400.85,119.94,400.8,119.94,400.71Z"/><path class="cls-37" d="M130.81,400.43a1.92,1.92,0,0,1-.68-1.05,1,1,0,0,1,.16-.6,3.76,3.76,0,0,1,.52-.8q.18-.21.3-.21c.08,0,.14.06.19.18.47,1.09,1.11,1.63,1.94,1.63a1.28,1.28,0,0,0,1-.39,1.45,1.45,0,0,0,.36-1,4.33,4.33,0,0,0-1-2.28l-.49-.7a7.75,7.75,0,0,1-.79-1.3,3,3,0,0,1,.28-2.78,3.55,3.55,0,0,1,1.31-1.18,3.6,3.6,0,0,1,1.71-.44q1.68,0,1.68,1.14a1.44,1.44,0,0,1-.3.84c-.11.19-.21.28-.28.28s-.18-.09-.26-.28a1.74,1.74,0,0,0-.62-.64,1.93,1.93,0,0,0-.92-.19,1.53,1.53,0,0,0-1.05.35,1.15,1.15,0,0,0-.4.89,1.75,1.75,0,0,0,.2.69,13.52,13.52,0,0,0,.77,1.17l.49.68a7.23,7.23,0,0,1,.91,1.48,3.34,3.34,0,0,1,.26,1.29,3.13,3.13,0,0,1-.56,1.72,4.33,4.33,0,0,1-1.49,1.39,3.88,3.88,0,0,1-2,.54A2,2,0,0,1,130.81,400.43Z"/><path class="cls-38" d="M139.51,399.73a6.71,6.71,0,0,1,.14-1.24l1.11-6.23a7.26,7.26,0,0,0,.09-.75c0-.23-.07-.35-.21-.34s-.41.14-.68.44a6.54,6.54,0,0,0-.86,1.4c-.06.19-.14.28-.23.28s-.14-.08-.14-.23a3.2,3.2,0,0,1,.5-1.44,5.87,5.87,0,0,1,1.23-1.52,2.21,2.21,0,0,1,1.37-.64q.72,0,.72,1a7.12,7.12,0,0,1-.14,1.29l-1.2,6.74,0,.31c0,.17.07.25.21.25s.41-.15.68-.45a7.28,7.28,0,0,0,.86-1.39c.07-.17.15-.26.23-.26s.14.1.14.3a3,3,0,0,1-.5,1.39,6.13,6.13,0,0,1-1.22,1.5,2.07,2.07,0,0,1-1.31.64C139.76,400.8,139.52,400.45,139.51,399.73Zm1.89-11.83.28-1.64a1.82,1.82,0,0,1,.5-1,1.35,1.35,0,0,1,1-.36h.09c.09,0,.15,0,.17.05s0,.09,0,.18l-.26,1.61a1.67,1.67,0,0,1-.49,1,1.33,1.33,0,0,1-1,.39h-.1C141.46,388.13,141.39,388.05,141.4,387.9Z"/><path class="cls-39" d="M145,400.4a1.92,1.92,0,0,1-.68-1,1,1,0,0,1,.15-.6,4.26,4.26,0,0,1,.53-.8q.18-.21.3-.21c.08,0,.14.06.19.18.47,1.09,1.11,1.63,1.94,1.63a1.28,1.28,0,0,0,1-.39,1.45,1.45,0,0,0,.36-1,4.33,4.33,0,0,0-1-2.28l-.49-.7a7.75,7.75,0,0,1-.79-1.3,2.74,2.74,0,0,1-.22-1.1,2.91,2.91,0,0,1,.5-1.68,3.55,3.55,0,0,1,1.31-1.18,3.59,3.59,0,0,1,1.7-.44c1.13,0,1.69.38,1.69,1.14a1.44,1.44,0,0,1-.3.84c-.11.19-.21.28-.28.28s-.18-.09-.26-.28a1.74,1.74,0,0,0-.62-.64,1.93,1.93,0,0,0-.92-.19,1.53,1.53,0,0,0-1,.35,1.12,1.12,0,0,0-.4.89,1.6,1.6,0,0,0,.2.69c.14.25.39.64.76,1.17l.5.68a7.23,7.23,0,0,1,.91,1.48,3.34,3.34,0,0,1,.26,1.29,3.13,3.13,0,0,1-.56,1.72,4.33,4.33,0,0,1-1.49,1.39,3.88,3.88,0,0,1-2,.54A2,2,0,0,1,145,400.4Z"/><path class="cls-40" d="M154.29,400.29A2.49,2.49,0,0,1,154,399a8.69,8.69,0,0,1,.1-1.3c.07-.45.12-.73.13-.82l.94-6h-2.35c-.08,0-.12,0-.12-.11s.17-.38.51-.67a1.47,1.47,0,0,1,.75-.43h1.4l.23-1.44a2.22,2.22,0,0,1,.72-1.38,1.82,1.82,0,0,1,1.26-.61.11.11,0,0,1,.12.12,2.26,2.26,0,0,1-.21.54,4.57,4.57,0,0,0-.31,1l-.27,1.8h2.29c.09,0,.14,0,.13.14s-.18.33-.54.63a1.91,1.91,0,0,1-.71.44h-1.31l-.94,6c0,.11-.06.37-.13.79a6.29,6.29,0,0,0-.1,1c0,.51.17.77.51.77a1.27,1.27,0,0,0,.8-.36,3.63,3.63,0,0,0,.74-1,.24.24,0,0,1,.06-.09.08.08,0,0,1,.08,0q.12,0,.12.3a2.15,2.15,0,0,1-.41,1.1,3.85,3.85,0,0,1-1,1.07,2.06,2.06,0,0,1-1.2.45A1,1,0,0,1,154.29,400.29Z"/><path class="cls-41" d="M160.57,400a3.55,3.55,0,0,1-.62-2.22,9.6,9.6,0,0,1,.82-3.7,10.21,10.21,0,0,1,2.13-3.3,3.75,3.75,0,0,1,2.63-1.32c.81,0,1.22.49,1.22,1.47a4.38,4.38,0,0,1-.7,2.33,7.14,7.14,0,0,1-1.87,2,9,9,0,0,1-2.58,1.35,3.15,3.15,0,0,0,.42,1.82,1.39,1.39,0,0,0,1.2.56,2.47,2.47,0,0,0,1.54-.54,4.34,4.34,0,0,0,1.18-1.48l.14-.23a.23.23,0,0,1,.19-.09c.12,0,.19.09.19.28a3,3,0,0,1-.63,1.56,6,6,0,0,1-1.61,1.61,3.47,3.47,0,0,1-2,.69A2,2,0,0,1,160.57,400Zm3.07-5a3.61,3.61,0,0,0,1.15-1.18,3.13,3.13,0,0,0,.47-1.68c0-.73-.26-1.1-.78-1.1a1.6,1.6,0,0,0-1.2.68,5.86,5.86,0,0,0-.95,1.68,9.51,9.51,0,0,0-.52,1.94,1.08,1.08,0,0,0,.54.09A2.44,2.44,0,0,0,163.64,394.91Z"/><path class="cls-42" d="M168.73,400.6a1.68,1.68,0,0,1,.1-.41c.07-.21.17-.57.29-1.08q.47-1.94,1.11-6.47a10,10,0,0,0,.14-1.23c0-.21-.05-.31-.15-.31-.26,0-.66.47-1.18,1.41l-.21.36a2,2,0,0,1-.15.22.16.16,0,0,1-.13.07c-.13,0-.19-.08-.19-.23a3,3,0,0,1,.51-1.33,7.35,7.35,0,0,1,1.21-1.54,2,2,0,0,1,1.26-.66.57.57,0,0,1,.54.32,1.82,1.82,0,0,1,.16.82,23.61,23.61,0,0,1-.36,3h0a11.79,11.79,0,0,1,2.35-3,3.66,3.66,0,0,1,2.21-1.13c.66,0,1,.45,1,1.37a11.78,11.78,0,0,1-.21,1.73l-.53,2.8c-.39,2-.58,3.1-.58,3.36a.48.48,0,0,0,.09.29.27.27,0,0,0,.26.13c.42,0,.9-.64,1.45-1.92,0-.17.12-.25.23-.25s.14.09.14.28,0,.26,0,.37a4.24,4.24,0,0,1-.68,1.58,4.35,4.35,0,0,1-1.14,1.16,2.08,2.08,0,0,1-1.14.44.67.67,0,0,1-.67-.41,2.37,2.37,0,0,1-.17-.9,22.16,22.16,0,0,1,.57-3.78,27.29,27.29,0,0,0,.6-3.69,1.2,1.2,0,0,0-.06-.59c0-.12-.18-.17-.38-.17a2.21,2.21,0,0,0-1.55,1,10,10,0,0,0-1.48,2.34,10.72,10.72,0,0,0-.86,2.54l-.37,2a2.23,2.23,0,0,1-.74,1.14,1.72,1.72,0,0,1-1.07.54C168.8,400.74,168.73,400.69,168.73,400.6Z"/><path class="cls-43" d="M180.09,399.82a4.47,4.47,0,0,1-.5-2.13,9.34,9.34,0,0,1,.85-3.74,9.9,9.9,0,0,1,2.2-3.27,4,4,0,0,1,2.79-1.31,1.77,1.77,0,0,1,1,.24.73.73,0,0,1,.37.64,1.73,1.73,0,0,1-.28.86c-.11.19-.21.29-.3.29s-.12,0-.17-.12a1.52,1.52,0,0,0-1.28-.67,2.48,2.48,0,0,0-1.74.78,5.44,5.44,0,0,0-1.27,2.09,8.61,8.61,0,0,0-.46,2.83c0,1.74.49,2.61,1.46,2.61a1.75,1.75,0,0,0,1.28-.57,6.64,6.64,0,0,0,1-1.38,1.18,1.18,0,0,0,.11-.18.67.67,0,0,1,.13-.17.24.24,0,0,1,.15,0,.12.12,0,0,1,.12.08.39.39,0,0,1,.05.2,3,3,0,0,1-.63,1.6,6.4,6.4,0,0,1-1.57,1.59,3.18,3.18,0,0,1-1.81.66A1.57,1.57,0,0,1,180.09,399.82Z"/><path class="cls-44" d="M187,409.28a3.13,3.13,0,0,1-.94-1.27,4.32,4.32,0,0,1-.3-1.59,2.28,2.28,0,0,1,.27-1.22,1.57,1.57,0,0,1,.61-.62,1.28,1.28,0,0,1,.49-.17c.08,0,.11.08.11.24,0,2.42.79,3.63,2.35,3.63a2.87,2.87,0,0,0,2.58-2,12.14,12.14,0,0,0,.65-1.94c.2-.77.47-2,.81-3.64.14-.67.21-1,.23-1.14l.69-3.22h0a11.77,11.77,0,0,1-1.32,2.16,9.75,9.75,0,0,1-1.52,1.59,2.19,2.19,0,0,1-1.21.6c-.34,0-.58-.26-.71-.78a6.81,6.81,0,0,1-.18-1.91l.17-5.83a3.56,3.56,0,0,0,0-.51,1.35,1.35,0,0,0-.08-.56.3.3,0,0,0-.31-.19,1,1,0,0,0-.68.4,3.57,3.57,0,0,0-.65,1c-.09.26-.2.39-.3.4s-.19-.1-.19-.28a2.76,2.76,0,0,1,.42-1.33,4.49,4.49,0,0,1,1.05-1.27,2,2,0,0,1,1.23-.51.88.88,0,0,1,.89.65,5.54,5.54,0,0,1,.23,1.77l0,.75-.2,3.85,0,.77a3.8,3.8,0,0,0,.11,1.07c.07.22.2.33.38.33.34,0,.75-.33,1.21-1a13.25,13.25,0,0,0,1.33-2.4,17,17,0,0,0,.93-2.66l.34-1.43a2.16,2.16,0,0,1,.8-1.29,1.92,1.92,0,0,1,1.09-.44c.12,0,.19,0,.19.12a.87.87,0,0,1-.09.32c0,.14-.09.25-.12.31a7.75,7.75,0,0,0-.33,1.06c-.09.38-.18.84-.28,1.37l-1.22,6.62-.23,1.34c-.18,1.08-.35,1.94-.51,2.57a10.59,10.59,0,0,1-.64,1.87,9.7,9.7,0,0,1-1.19,1.91,9.33,9.33,0,0,1-2.19,2.17,4,4,0,0,1-2.19.78A2.41,2.41,0,0,1,187,409.28Z"/><path class="cls-45" d="M215.08,400.21a3.36,3.36,0,0,1-.79-1.34l-1.41-3.78a4.43,4.43,0,0,0-.52-1.07,1.65,1.65,0,0,0-.78-.52,4.44,4.44,0,0,0-1.43-.17l-.74,4.53a2.06,2.06,0,0,1-.44,1v0l.36.13a1.65,1.65,0,0,0,.46.08,1.48,1.48,0,0,0,.58-.13,1.13,1.13,0,0,1,.37-.13.12.12,0,0,1,.14.14.85.85,0,0,1-.27.51c-.59.64-1.07,1-1.43,1a3.83,3.83,0,0,1-.79-.18,3.83,3.83,0,0,0-.93-.21,1.69,1.69,0,0,0-.76.2,3,3,0,0,1-.43.2c-.08,0-.12-.08-.12-.23a.91.91,0,0,1,.12-.47,2.35,2.35,0,0,1,.39-.49,7,7,0,0,0,.7-.71,1.86,1.86,0,0,0,.26-.6c.06-.25.15-.76.27-1.52l1.41-8.31a2,2,0,0,1,.8-1.17,2.16,2.16,0,0,1,1.27-.58c.16,0,.23,0,.23.12a1.24,1.24,0,0,1-.22.38,2.76,2.76,0,0,0-.33,1.11l-.65,4.22a5.51,5.51,0,0,0,1.1.07,3.37,3.37,0,0,0,2.6-1,3.86,3.86,0,0,0,.94-2.74q0-3.24-3.58-3.24a6,6,0,0,0-4.68,2.07l-.33.35a.42.42,0,0,1-.28.14c-.09,0-.14-.06-.14-.17a1.81,1.81,0,0,1,0-.25,3.37,3.37,0,0,1,1-1.6,6.28,6.28,0,0,1,2.17-1.29,8.1,8.1,0,0,1,2.94-.51,5.32,5.32,0,0,1,3.39,1,3.35,3.35,0,0,1,1.23,2.78,4.77,4.77,0,0,1-1.14,3.17,6,6,0,0,1-2.95,1.92,2.87,2.87,0,0,1,1.82,1.84l1.17,3.17a3,3,0,0,0,.48.85.85.85,0,0,0,.65.27,1.47,1.47,0,0,0,1.09-.61l.2-.26c.07-.09.14-.14.2-.14s.19.1.19.31a2.08,2.08,0,0,1-.36,1.12,3.07,3.07,0,0,1-.92.91,2.15,2.15,0,0,1-1.12.35A1.46,1.46,0,0,1,215.08,400.21Z"/><path class="cls-46" d="M220,399.83a3.6,3.6,0,0,1-.62-2.23,9.45,9.45,0,0,1,.82-3.7,10.27,10.27,0,0,1,2.13-3.29,3.78,3.78,0,0,1,2.63-1.33c.81,0,1.21.49,1.22,1.47a4.44,4.44,0,0,1-.7,2.34,7.27,7.27,0,0,1-1.87,2,9.32,9.32,0,0,1-2.58,1.34,3.15,3.15,0,0,0,.41,1.82,1.4,1.4,0,0,0,1.21.56,2.42,2.42,0,0,0,1.53-.54,4.3,4.3,0,0,0,1.19-1.47,2.55,2.55,0,0,1,.14-.24.23.23,0,0,1,.19-.09c.12,0,.18.09.18.28a2.93,2.93,0,0,1-.62,1.57A6.16,6.16,0,0,1,223.6,400a3.46,3.46,0,0,1-2,.68A2,2,0,0,1,220,399.83Zm3.07-5.05a3.61,3.61,0,0,0,1.15-1.18,3,3,0,0,0,.46-1.68c0-.73-.25-1.1-.77-1.09a1.59,1.59,0,0,0-1.2.67,5.82,5.82,0,0,0-.95,1.69,8.83,8.83,0,0,0-.52,1.93,1,1,0,0,0,.54.1A2.46,2.46,0,0,0,223,394.78Z"/><path class="cls-47" d="M227.4,398.33a10.48,10.48,0,0,1,.93-4.24,9.61,9.61,0,0,1,2.51-3.47,5.21,5.21,0,0,1,3.4-1.36h.24a33.49,33.49,0,0,1,1.43-4.85,7.86,7.86,0,0,1,1.79-2.71,4.87,4.87,0,0,1,1.35-1,9.09,9.09,0,0,1,1.66-.47,4,4,0,0,0,.66-.18,1.24,1.24,0,0,1,.27-.08c.11,0,.16.06.17.18s-.15.43-.45.68a1.21,1.21,0,0,1-.43.28,2,2,0,0,1-.38.1l-.28,0a3.14,3.14,0,0,0-2.05,1.22,7.74,7.74,0,0,0-1.11,2.34q-.47,1.51-1.28,5.3-1.34,6.53-1.5,7.82a2.24,2.24,0,0,0,0,.39c0,.35.1.52.3.52a.93.93,0,0,0,.71-.51A8.44,8.44,0,0,0,236,397c.09-.17.18-.26.26-.26s.14.09.14.26l-.05.4a4.53,4.53,0,0,1-.68,1.55,4.88,4.88,0,0,1-1.12,1.18,2,2,0,0,1-1.13.44c-.5,0-.75-.41-.75-1.23a8.34,8.34,0,0,1,.09-1.12l.39-2.05h0a16.76,16.76,0,0,1-2.19,2.95,3.53,3.53,0,0,1-2.37,1.46Q227.4,400.63,227.4,398.33Zm3.79-.65a14.46,14.46,0,0,0,2.59-5.13l.37-1.49a2.6,2.6,0,0,0-1.47-.46,2.28,2.28,0,0,0-1.83,1.16,8.94,8.94,0,0,0-1.29,2.8,11,11,0,0,0-.46,3,2.43,2.43,0,0,0,.13.88.47.47,0,0,0,.46.29C230.12,398.7,230.63,398.36,231.19,397.68Z"/><path class="cls-48" d="M238.76,399.79a3.54,3.54,0,0,1-.63-2.23,9.64,9.64,0,0,1,.82-3.7,10.27,10.27,0,0,1,2.13-3.29,3.82,3.82,0,0,1,2.64-1.33c.8,0,1.21.49,1.21,1.47a4.52,4.52,0,0,1-.69,2.34,7.31,7.31,0,0,1-1.88,2,9.13,9.13,0,0,1-2.57,1.34,3.15,3.15,0,0,0,.41,1.82,1.37,1.37,0,0,0,1.2.56,2.47,2.47,0,0,0,1.54-.54,4.42,4.42,0,0,0,1.19-1.47,1.38,1.38,0,0,1,.14-.24.21.21,0,0,1,.18-.09c.13,0,.19.09.19.28a3,3,0,0,1-.63,1.57,6,6,0,0,1-1.6,1.61,3.48,3.48,0,0,1-2,.68A2,2,0,0,1,238.76,399.79Zm3.06-5.05a3.64,3.64,0,0,0,1.16-1.18,3.12,3.12,0,0,0,.46-1.68c0-.73-.26-1.1-.77-1.09a1.59,1.59,0,0,0-1.2.67,5.82,5.82,0,0,0-.95,1.69,9.48,9.48,0,0,0-.53,1.93,1,1,0,0,0,.54.1A2.4,2.4,0,0,0,241.82,394.74Z"/><path class="cls-49" d="M257.85,397a3,3,0,0,1-.51,1.37,6.66,6.66,0,0,1-1.24,1.5,2.08,2.08,0,0,1-1.35.66c-.47,0-.7-.32-.7-1a8.58,8.58,0,0,1,.16-1.35l1-6.21a4.6,4.6,0,0,0,.07-.63c0-.23-.06-.38-.18-.44a2,2,0,0,0-.64-.14h-3.6l-1.56,10.78q-1.2,8-5.86,8a1.73,1.73,0,0,1-.55-.08,1.47,1.47,0,0,1-.48-.34,1.15,1.15,0,0,1-.44-.72c0-.08.06-.12.18-.12a2.32,2.32,0,0,1,.56.07,5.72,5.72,0,0,0,1.4.16,2.37,2.37,0,0,0,1.63-.55,4,4,0,0,0,1-1.75,21.2,21.2,0,0,0,.73-3.31c0-.17.17-1.17.43-3q.84-6,1.36-9.17H248.1a2.41,2.41,0,0,0-.94.16,1.59,1.59,0,0,1-.38.15c-.11,0-.17-.07-.17-.21a.77.77,0,0,1,.14-.4,2,2,0,0,1,.71-.77,2.05,2.05,0,0,1,1.11-.3h1l0-.25a22.07,22.07,0,0,1,1.56-5.49,6.76,6.76,0,0,1,1.93-2.59,7,7,0,0,1,2.49-1l.95-.19c.08,0,.12,0,.12.11s-.15.43-.46.73a1.2,1.2,0,0,1-.44.33,1.86,1.86,0,0,1-.54.07,2.37,2.37,0,0,0-2,1.09,7.68,7.68,0,0,0-1.17,2.62c-.27,1-.53,2.32-.79,3.88l-.11.72H255a3.51,3.51,0,0,0,.88-.12l.17-.07a1.45,1.45,0,0,1,.35,0h0q.66,0,.66,1a6.94,6.94,0,0,1-.14,1.29l-1.22,6.74a1.19,1.19,0,0,0,0,.28c0,.19.07.28.21.28.4,0,.91-.62,1.53-1.85,0-.17.13-.25.24-.25S257.85,396.83,257.85,397Zm-1.59-11a1.65,1.65,0,0,1,.49-1,1.36,1.36,0,0,1,1-.37h.09a.24.24,0,0,1,.15,0s0,.09,0,.2l-.26,1.61a1.79,1.79,0,0,1-.5,1.05,1.3,1.3,0,0,1-1,.38h-.12c-.08,0-.13,0-.15-.05a.27.27,0,0,1,0-.19Z"/><path class="cls-50" d="M260,400.41a2.4,2.4,0,0,1,.1-.41c.07-.21.17-.57.29-1.09q.47-1.94,1.11-6.46a10.08,10.08,0,0,0,.14-1.24c0-.2-.05-.3-.14-.3-.27,0-.66.47-1.19,1.4l-.21.36a2.33,2.33,0,0,1-.15.23.19.19,0,0,1-.13.07c-.12,0-.19-.08-.19-.24a3,3,0,0,1,.51-1.33,7.92,7.92,0,0,1,1.21-1.53,2,2,0,0,1,1.26-.67.56.56,0,0,1,.54.33,1.8,1.8,0,0,1,.17.81,24.37,24.37,0,0,1-.37,3h0a11.62,11.62,0,0,1,2.35-3,3.65,3.65,0,0,1,2.22-1.14c.65,0,1,.46,1,1.38a11.54,11.54,0,0,1-.21,1.72l-.53,2.81a33,33,0,0,0-.57,3.36.49.49,0,0,0,.08.29.3.3,0,0,0,.27.13c.42,0,.9-.64,1.44-1.92.05-.17.12-.26.23-.26s.14.09.14.28a2.24,2.24,0,0,1,0,.38,4.11,4.11,0,0,1-.67,1.57,4.55,4.55,0,0,1-1.14,1.17,2.09,2.09,0,0,1-1.15.43.64.64,0,0,1-.66-.4,2.19,2.19,0,0,1-.18-.9,21.47,21.47,0,0,1,.58-3.78,27.54,27.54,0,0,0,.6-3.69,1.48,1.48,0,0,0-.06-.59.39.39,0,0,0-.39-.18,2.23,2.23,0,0,0-1.55,1,11.47,11.47,0,0,0-2.33,4.88l-.37,2a2.23,2.23,0,0,1-.75,1.15,1.72,1.72,0,0,1-1.07.54C260.07,400.55,260,400.5,260,400.41Z"/><path class="cls-51" d="M271.61,399.72a3.6,3.6,0,0,1-.63-2.23,9.64,9.64,0,0,1,.82-3.7,10.27,10.27,0,0,1,2.13-3.29,3.82,3.82,0,0,1,2.64-1.33c.8,0,1.21.49,1.21,1.47a4.52,4.52,0,0,1-.69,2.34,7.31,7.31,0,0,1-1.88,2,9.13,9.13,0,0,1-2.57,1.34,3.15,3.15,0,0,0,.41,1.82,1.37,1.37,0,0,0,1.2.56,2.45,2.45,0,0,0,1.54-.54,4.42,4.42,0,0,0,1.19-1.47,1.54,1.54,0,0,1,.14-.23.2.2,0,0,1,.18-.1c.13,0,.19.09.19.28a3.11,3.11,0,0,1-.62,1.57,6.16,6.16,0,0,1-1.61,1.61,3.48,3.48,0,0,1-2,.68A2,2,0,0,1,271.61,399.72Zm3.07-5.05a3.71,3.71,0,0,0,1.15-1.18,3.12,3.12,0,0,0,.46-1.68c0-.73-.26-1.1-.77-1.09a1.57,1.57,0,0,0-1.2.68,5.63,5.63,0,0,0-.95,1.68,9.48,9.48,0,0,0-.53,1.93,1,1,0,0,0,.54.1A2.46,2.46,0,0,0,274.68,394.67Z"/><path class="cls-52" d="M279.06,398.22A10.46,10.46,0,0,1,280,394a9.73,9.73,0,0,1,2.51-3.47,5.25,5.25,0,0,1,3.41-1.36h.23a34.59,34.59,0,0,1,1.44-4.85,7.72,7.72,0,0,1,1.79-2.71,4.87,4.87,0,0,1,1.35-1,8.86,8.86,0,0,1,1.66-.47A4,4,0,0,0,293,380a1,1,0,0,1,.27-.08c.11,0,.16.06.16.18s-.15.43-.44.68a1.3,1.3,0,0,1-.43.28,1.86,1.86,0,0,1-.39.1l-.28,0a3.17,3.17,0,0,0-2.05,1.22,8,8,0,0,0-1.1,2.34c-.32,1-.74,2.78-1.28,5.3q-1.35,6.52-1.5,7.82a2.21,2.21,0,0,0,0,.39c0,.35.11.52.31.52s.48-.17.71-.51a9.35,9.35,0,0,0,.71-1.34c.09-.17.18-.26.25-.26s.14.09.15.26l0,.4a4.38,4.38,0,0,1-.69,1.55,4.67,4.67,0,0,1-1.11,1.18,2,2,0,0,1-1.13.44c-.5,0-.75-.41-.75-1.23a8.46,8.46,0,0,1,.09-1.12l.39-2.05h0a17.83,17.83,0,0,1-2.19,3,3.54,3.54,0,0,1-2.38,1.46C279.46,400.51,279.06,399.75,279.06,398.22Zm3.79-.65a13.19,13.19,0,0,0,1.58-2.49,12.72,12.72,0,0,0,1-2.64l.37-1.49a2.63,2.63,0,0,0-1.47-.46,2.28,2.28,0,0,0-1.83,1.16,8.94,8.94,0,0,0-1.29,2.8,11,11,0,0,0-.46,3,2.23,2.23,0,0,0,.13.88.47.47,0,0,0,.46.29Q282,398.59,282.85,397.57Z"/><path class="cls-53" d="M291.23,391.92a1,1,0,0,1-.19-.63,1.73,1.73,0,0,1,.52-1.21,1.47,1.47,0,0,1,1.06-.59.65.65,0,0,1,.51.24.93.93,0,0,1,.21.62,1.79,1.79,0,0,1-.52,1.2,1.45,1.45,0,0,1-1.06.6A.69.69,0,0,1,291.23,391.92Zm-.77,8.09a1,1,0,0,1-.2-.62,1.56,1.56,0,0,1,.25-.82,2.49,2.49,0,0,1,.63-.7,1.17,1.17,0,0,1,.7-.28.66.66,0,0,1,.53.24,1,1,0,0,1,.2.62,1.84,1.84,0,0,1-.53,1.2,1.43,1.43,0,0,1-1.06.6A.64.64,0,0,1,290.46,400Z"/></svg>